{
  "ticksPerBeat": 256,
  "tempoMap": [
    {
      "tick": 0,
      "mpb": 923075,
      "startSec": 0
    },
    {
      "tick": 1024,
      "mpb": 923074,
      "startSec": 3.6923
    },
    {
      "tick": 1792,
      "mpb": 923073,
      "startSec": 6.461522
    },
    {
      "tick": 2816,
      "mpb": 923073,
      "startSec": 10.153814
    },
    {
      "tick": 3584,
      "mpb": 923073,
      "startSec": 12.923033
    },
    {
      "tick": 18944,
      "mpb": 923073,
      "startSec": 68.307413
    },
    {
      "tick": 19712,
      "mpb": 1384608,
      "startSec": 71.076632
    },
    {
      "tick": 19840,
      "mpb": 2076913,
      "startSec": 71.768936
    },
    {
      "tick": 20096,
      "mpb": 1384608,
      "startSec": 73.845849
    },
    {
      "tick": 20224,
      "mpb": 923073,
      "startSec": 74.538153
    },
    {
      "tick": 44032,
      "mpb": 1384608,
      "startSec": 160.383942
    },
    {
      "tick": 44288,
      "mpb": 2076913,
      "startSec": 161.76855
    },
    {
      "tick": 44544,
      "mpb": 923073,
      "startSec": 163.845463
    },
    {
      "tick": 44800,
      "mpb": 1384608,
      "startSec": 164.76853599999998
    }
  ],
  "notes": [
    {
      "time": 0,
      "note": 81,
      "noteName": "A5",
      "velocity": 70,
      "duration": 0.4615,
      "track": 1
    },
    {
      "time": 0,
      "note": 54,
      "noteName": "F#3",
      "velocity": 72,
      "duration": 0.4615,
      "track": 1
    },
    {
      "time": 0.4615,
      "note": 80,
      "noteName": "G#5",
      "velocity": 71,
      "duration": 0.4615,
      "track": 1
    },
    {
      "time": 0.4615,
      "note": 61,
      "noteName": "C#4",
      "velocity": 88,
      "duration": 0.4615,
      "track": 1
    },
    {
      "time": 0.9231,
      "note": 81,
      "noteName": "A5",
      "velocity": 79,
      "duration": 0.4615,
      "track": 1
    },
    {
      "time": 0.9231,
      "note": 66,
      "noteName": "F#4",
      "velocity": 90,
      "duration": 0.9231,
      "track": 1
    },
    {
      "time": 1.3846,
      "note": 80,
      "noteName": "G#5",
      "velocity": 68,
      "duration": 0.4615,
      "track": 1
    },
    {
      "time": 1.8461,
      "note": 81,
      "noteName": "A5",
      "velocity": 75,
      "duration": 0.4615,
      "track": 1
    },
    {
      "time": 1.8461,
      "note": 50,
      "noteName": "D3",
      "velocity": 65,
      "duration": 0.4615,
      "track": 1
    },
    {
      "time": 2.3077,
      "note": 76,
      "noteName": "E5",
      "velocity": 68,
      "duration": 0.4615,
      "track": 1
    },
    {
      "time": 2.3077,
      "note": 57,
      "noteName": "A3",
      "velocity": 82,
      "duration": 0.4615,
      "track": 1
    },
    {
      "time": 2.7692,
      "note": 81,
      "noteName": "A5",
      "velocity": 85,
      "duration": 0.4615,
      "track": 1
    },
    {
      "time": 2.7692,
      "note": 64,
      "noteName": "E4",
      "velocity": 91,
      "duration": 3.6923,
      "track": 1
    },
    {
      "time": 3.2308,
      "note": 74,
      "noteName": "D5",
      "velocity": 65,
      "duration": 2.7692,
      "track": 1
    },
    {
      "time": 6,
      "note": 69,
      "noteName": "A4",
      "velocity": 66,
      "duration": 0.2308,
      "track": 1
    },
    {
      "time": 6.2308,
      "note": 73,
      "noteName": "C#5",
      "velocity": 79,
      "duration": 0.2308,
      "track": 1
    },
    {
      "time": 6.4615,
      "note": 81,
      "noteName": "A5",
      "velocity": 92,
      "duration": 0.4615,
      "track": 1
    },
    {
      "time": 6.4615,
      "note": 54,
      "noteName": "F#3",
      "velocity": 65,
      "duration": 0.4615,
      "track": 1
    },
    {
      "time": 6.9231,
      "note": 80,
      "noteName": "G#5",
      "velocity": 79,
      "duration": 0.4615,
      "track": 1
    },
    {
      "time": 6.9231,
      "note": 61,
      "noteName": "C#4",
      "velocity": 91,
      "duration": 0.4615,
      "track": 1
    },
    {
      "time": 7.3846,
      "note": 81,
      "noteName": "A5",
      "velocity": 77,
      "duration": 0.4615,
      "track": 1
    },
    {
      "time": 7.3846,
      "note": 66,
      "noteName": "F#4",
      "velocity": 86,
      "duration": 0.9231,
      "track": 1
    },
    {
      "time": 7.8461,
      "note": 80,
      "noteName": "G#5",
      "velocity": 73,
      "duration": 0.4615,
      "track": 1
    },
    {
      "time": 8.3077,
      "note": 81,
      "noteName": "A5",
      "velocity": 81,
      "duration": 0.4615,
      "track": 1
    },
    {
      "time": 8.3077,
      "note": 50,
      "noteName": "D3",
      "velocity": 71,
      "duration": 0.4615,
      "track": 1
    },
    {
      "time": 8.7692,
      "note": 76,
      "noteName": "E5",
      "velocity": 64,
      "duration": 0.4615,
      "track": 1
    },
    {
      "time": 8.7692,
      "note": 57,
      "noteName": "A3",
      "velocity": 85,
      "duration": 0.4615,
      "track": 1
    },
    {
      "time": 9.2307,
      "note": 81,
      "noteName": "A5",
      "velocity": 86,
      "duration": 0.4615,
      "track": 1
    },
    {
      "time": 9.2307,
      "note": 64,
      "noteName": "E4",
      "velocity": 90,
      "duration": 3.6923,
      "track": 1
    },
    {
      "time": 9.6923,
      "note": 74,
      "noteName": "D5",
      "velocity": 61,
      "duration": 2.7692,
      "track": 1
    },
    {
      "time": 12.4615,
      "note": 69,
      "noteName": "A4",
      "velocity": 68,
      "duration": 0.2308,
      "track": 1
    },
    {
      "time": 12.6923,
      "note": 73,
      "noteName": "C#5",
      "velocity": 82,
      "duration": 0.2308,
      "track": 1
    },
    {
      "time": 12.923,
      "note": 81,
      "noteName": "A5",
      "velocity": 93,
      "duration": 0.4615,
      "track": 1
    },
    {
      "time": 12.923,
      "note": 54,
      "noteName": "F#3",
      "velocity": 68,
      "duration": 0.4615,
      "track": 1
    },
    {
      "time": 13.3846,
      "note": 80,
      "noteName": "G#5",
      "velocity": 77,
      "duration": 0.2308,
      "track": 1
    },
    {
      "time": 13.3846,
      "note": 61,
      "noteName": "C#4",
      "velocity": 87,
      "duration": 0.4615,
      "track": 1
    },
    {
      "time": 13.6153,
      "note": 81,
      "noteName": "A5",
      "velocity": 85,
      "duration": 0.4615,
      "track": 1
    },
    {
      "time": 13.8461,
      "note": 66,
      "noteName": "F#4",
      "velocity": 87,
      "duration": 0.9231,
      "track": 1
    },
    {
      "time": 14.0769,
      "note": 69,
      "noteName": "A4",
      "velocity": 58,
      "duration": 0.2308,
      "track": 1
    },
    {
      "time": 14.3076,
      "note": 80,
      "noteName": "G#5",
      "velocity": 88,
      "duration": 0.2308,
      "track": 1
    },
    {
      "time": 14.5384,
      "note": 81,
      "noteName": "A5",
      "velocity": 86,
      "duration": 0.4615,
      "track": 1
    },
    {
      "time": 14.7692,
      "note": 50,
      "noteName": "D3",
      "velocity": 66,
      "duration": 0.4615,
      "track": 1
    },
    {
      "time": 14.9999,
      "note": 69,
      "noteName": "A4",
      "velocity": 56,
      "duration": 0.2308,
      "track": 1
    },
    {
      "time": 15.2307,
      "note": 76,
      "noteName": "E5",
      "velocity": 89,
      "duration": 0.2308,
      "track": 1
    },
    {
      "time": 15.2307,
      "note": 57,
      "noteName": "A3",
      "velocity": 83,
      "duration": 0.4615,
      "track": 1
    },
    {
      "time": 15.4615,
      "note": 81,
      "noteName": "A5",
      "velocity": 89,
      "duration": 0.4615,
      "track": 1
    },
    {
      "time": 15.6923,
      "note": 64,
      "noteName": "E4",
      "velocity": 93,
      "duration": 0.4615,
      "track": 1
    },
    {
      "time": 15.923,
      "note": 69,
      "noteName": "A4",
      "velocity": 58,
      "duration": 0.2308,
      "track": 1
    },
    {
      "time": 16.1538,
      "note": 74,
      "noteName": "D5",
      "velocity": 83,
      "duration": 0.2308,
      "track": 1
    },
    {
      "time": 16.1538,
      "note": 50,
      "noteName": "D3",
      "velocity": 75,
      "duration": 0.4615,
      "track": 1
    },
    {
      "time": 16.3846,
      "note": 69,
      "noteName": "A4",
      "velocity": 71,
      "duration": 0.2308,
      "track": 1
    },
    {
      "time": 16.6153,
      "note": 73,
      "noteName": "C#5",
      "velocity": 82,
      "duration": 0.4615,
      "track": 1
    },
    {
      "time": 16.6153,
      "note": 45,
      "noteName": "A2",
      "velocity": 68,
      "duration": 0.4615,
      "track": 1
    },
    {
      "time": 17.0769,
      "note": 74,
      "noteName": "D5",
      "velocity": 81,
      "duration": 0.4615,
      "track": 1
    },
    {
      "time": 17.0769,
      "note": 52,
      "noteName": "E3",
      "velocity": 85,
      "duration": 0.4615,
      "track": 1
    },
    {
      "time": 17.5384,
      "note": 69,
      "noteName": "A4",
      "velocity": 83,
      "duration": 0.4615,
      "track": 1
    },
    {
      "time": 17.5384,
      "note": 76,
      "noteName": "E5",
      "velocity": 83,
      "duration": 0.4615,
      "track": 1
    },
    {
      "time": 17.5384,
      "note": 61,
      "noteName": "C#4",
      "velocity": 96,
      "duration": 0.9231,
      "track": 1
    },
    {
      "time": 17.9999,
      "note": 73,
      "noteName": "C#5",
      "velocity": 70,
      "duration": 0.4615,
      "track": 1
    },
    {
      "time": 18.4615,
      "note": 56,
      "noteName": "G#3",
      "velocity": 74,
      "duration": 0.4615,
      "track": 1
    },
    {
      "time": 18.4615,
      "note": 68,
      "noteName": "G#4",
      "velocity": 77,
      "duration": 1.3846,
      "track": 1
    },
    {
      "time": 18.4615,
      "note": 71,
      "noteName": "B4",
      "velocity": 77,
      "duration": 1.3846,
      "track": 1
    },
    {
      "time": 18.923,
      "note": 59,
      "noteName": "B3",
      "velocity": 82,
      "duration": 0.4615,
      "track": 1
    },
    {
      "time": 19.3845,
      "note": 64,
      "noteName": "E4",
      "velocity": 84,
      "duration": 0.9231,
      "track": 1
    },
    {
      "time": 19.8461,
      "note": 69,
      "noteName": "A4",
      "velocity": 64,
      "duration": 0.2308,
      "track": 1
    },
    {
      "time": 20.0768,
      "note": 68,
      "noteName": "G#4",
      "velocity": 72,
      "duration": 0.2308,
      "track": 1
    },
    {
      "time": 20.3076,
      "note": 54,
      "noteName": "F#3",
      "velocity": 73,
      "duration": 0.4615,
      "track": 1
    },
    {
      "time": 20.3076,
      "note": 69,
      "noteName": "A4",
      "velocity": 79,
      "duration": 1.1538,
      "track": 1
    },
    {
      "time": 20.7692,
      "note": 61,
      "noteName": "C#4",
      "velocity": 90,
      "duration": 0.4615,
      "track": 1
    },
    {
      "time": 21.2307,
      "note": 66,
      "noteName": "F#4",
      "velocity": 88,
      "duration": 0.9231,
      "track": 1
    },
    {
      "time": 21.4615,
      "note": 64,
      "noteName": "E4",
      "velocity": 70,
      "duration": 0.2308,
      "track": 1
    },
    {
      "time": 21.6922,
      "note": 69,
      "noteName": "A4",
      "velocity": 88,
      "duration": 0.2308,
      "track": 1
    },
    {
      "time": 21.923,
      "note": 71,
      "noteName": "B4",
      "velocity": 84,
      "duration": 0.2308,
      "track": 1
    },
    {
      "time": 22.1538,
      "note": 50,
      "noteName": "D3",
      "velocity": 73,
      "duration": 0.4615,
      "track": 1
    },
    {
      "time": 22.1538,
      "note": 73,
      "noteName": "C#5",
      "velocity": 84,
      "duration": 1.3846,
      "track": 1
    },
    {
      "time": 22.6153,
      "note": 57,
      "noteName": "A3",
      "velocity": 83,
      "duration": 0.4615,
      "track": 1
    },
    {
      "time": 23.0768,
      "note": 64,
      "noteName": "E4",
      "velocity": 89,
      "duration": 0.9231,
      "track": 1
    },
    {
      "time": 23.5384,
      "note": 73,
      "noteName": "C#5",
      "velocity": 77,
      "duration": 0.2308,
      "track": 1
    },
    {
      "time": 23.7691,
      "note": 74,
      "noteName": "D5",
      "velocity": 81,
      "duration": 0.2308,
      "track": 1
    },
    {
      "time": 23.9999,
      "note": 45,
      "noteName": "A2",
      "velocity": 66,
      "duration": 0.4615,
      "track": 1
    },
    {
      "time": 23.9999,
      "note": 76,
      "noteName": "E5",
      "velocity": 83,
      "duration": 1.3846,
      "track": 1
    },
    {
      "time": 24.4614,
      "note": 52,
      "noteName": "E3",
      "velocity": 84,
      "duration": 0.4615,
      "track": 1
    },
    {
      "time": 24.923,
      "note": 61,
      "noteName": "C#4",
      "velocity": 94,
      "duration": 0.9231,
      "track": 1
    },
    {
      "time": 25.3845,
      "note": 74,
      "noteName": "D5",
      "velocity": 69,
      "duration": 0.2308,
      "track": 1
    },
    {
      "time": 25.6153,
      "note": 73,
      "noteName": "C#5",
      "velocity": 72,
      "duration": 0.2308,
      "track": 1
    },
    {
      "time": 25.8461,
      "note": 52,
      "noteName": "E3",
      "velocity": 69,
      "duration": 0.4615,
      "track": 1
    },
    {
      "time": 25.8461,
      "note": 71,
      "noteName": "B4",
      "velocity": 62,
      "duration": 1.8461,
      "track": 1
    },
    {
      "time": 26.3076,
      "note": 59,
      "noteName": "B3",
      "velocity": 82,
      "duration": 0.4615,
      "track": 1
    },
    {
      "time": 26.7691,
      "note": 68,
      "noteName": "G#4",
      "velocity": 95,
      "duration": 0.9231,
      "track": 1
    },
    {
      "time": 27.6922,
      "note": 81,
      "noteName": "A5",
      "velocity": 91,
      "duration": 0.4615,
      "track": 1
    },
    {
      "time": 27.6922,
      "note": 54,
      "noteName": "F#3",
      "velocity": 68,
      "duration": 0.4615,
      "track": 1
    },
    {
      "time": 28.1537,
      "note": 80,
      "noteName": "G#5",
      "velocity": 76,
      "duration": 0.2308,
      "track": 1
    },
    {
      "time": 28.1537,
      "note": 61,
      "noteName": "C#4",
      "velocity": 93,
      "duration": 0.4615,
      "track": 1
    },
    {
      "time": 28.3845,
      "note": 81,
      "noteName": "A5",
      "velocity": 79,
      "duration": 0.4615,
      "track": 1
    },
    {
      "time": 28.6153,
      "note": 66,
      "noteName": "F#4",
      "velocity": 87,
      "duration": 0.9231,
      "track": 1
    },
    {
      "time": 28.846,
      "note": 69,
      "noteName": "A4",
      "velocity": 60,
      "duration": 0.2308,
      "track": 1
    },
    {
      "time": 29.0768,
      "note": 80,
      "noteName": "G#5",
      "velocity": 92,
      "duration": 0.2308,
      "track": 1
    },
    {
      "time": 29.3076,
      "note": 81,
      "noteName": "A5",
      "velocity": 80,
      "duration": 0.4615,
      "track": 1
    },
    {
      "time": 29.5383,
      "note": 50,
      "noteName": "D3",
      "velocity": 65,
      "duration": 0.4615,
      "track": 1
    },
    {
      "time": 29.7691,
      "note": 69,
      "noteName": "A4",
      "velocity": 57,
      "duration": 0.2308,
      "track": 1
    },
    {
      "time": 29.9999,
      "note": 76,
      "noteName": "E5",
      "velocity": 89,
      "duration": 0.2308,
      "track": 1
    },
    {
      "time": 29.9999,
      "note": 57,
      "noteName": "A3",
      "velocity": 77,
      "duration": 0.4615,
      "track": 1
    },
    {
      "time": 30.2307,
      "note": 81,
      "noteName": "A5",
      "velocity": 86,
      "duration": 0.4615,
      "track": 1
    },
    {
      "time": 30.4614,
      "note": 64,
      "noteName": "E4",
      "velocity": 96,
      "duration": 0.4615,
      "track": 1
    },
    {
      "time": 30.6922,
      "note": 69,
      "noteName": "A4",
      "velocity": 54,
      "duration": 0.2308,
      "track": 1
    },
    {
      "time": 30.923,
      "note": 74,
      "noteName": "D5",
      "velocity": 86,
      "duration": 0.2308,
      "track": 1
    },
    {
      "time": 30.923,
      "note": 50,
      "noteName": "D3",
      "velocity": 72,
      "duration": 0.4615,
      "track": 1
    },
    {
      "time": 31.1537,
      "note": 69,
      "noteName": "A4",
      "velocity": 66,
      "duration": 0.2308,
      "track": 1
    },
    {
      "time": 31.3845,
      "note": 73,
      "noteName": "C#5",
      "velocity": 85,
      "duration": 0.4615,
      "track": 1
    },
    {
      "time": 31.3845,
      "note": 45,
      "noteName": "A2",
      "velocity": 71,
      "duration": 0.4615,
      "track": 1
    },
    {
      "time": 31.846,
      "note": 74,
      "noteName": "D5",
      "velocity": 79,
      "duration": 0.4615,
      "track": 1
    },
    {
      "time": 31.846,
      "note": 52,
      "noteName": "E3",
      "velocity": 79,
      "duration": 0.4615,
      "track": 1
    },
    {
      "time": 32.3076,
      "note": 76,
      "noteName": "E5",
      "velocity": 79,
      "duration": 0.4615,
      "track": 1
    },
    {
      "time": 32.3076,
      "note": 61,
      "noteName": "C#4",
      "velocity": 95,
      "duration": 0.4615,
      "track": 1
    },
    {
      "time": 32.7691,
      "note": 85,
      "noteName": "C#6",
      "velocity": 95,
      "duration": 0.4615,
      "track": 1
    },
    {
      "time": 32.7691,
      "note": 45,
      "noteName": "A2",
      "velocity": 69,
      "duration": 0.4615,
      "track": 1
    },
    {
      "time": 33.2306,
      "note": 83,
      "noteName": "B5",
      "velocity": 72,
      "duration": 0.4615,
      "track": 1
    },
    {
      "time": 33.2306,
      "note": 52,
      "noteName": "E3",
      "velocity": 81,
      "duration": 0.4615,
      "track": 1
    },
    {
      "time": 33.6922,
      "note": 76,
      "noteName": "E5",
      "velocity": 60,
      "duration": 0.4615,
      "track": 1
    },
    {
      "time": 33.6922,
      "note": 59,
      "noteName": "B3",
      "velocity": 84,
      "duration": 0.4615,
      "track": 1
    },
    {
      "time": 34.1537,
      "note": 83,
      "noteName": "B5",
      "velocity": 89,
      "duration": 0.4615,
      "track": 1
    },
    {
      "time": 34.1537,
      "note": 61,
      "noteName": "C#4",
      "velocity": 84,
      "duration": 0.9231,
      "track": 1
    },
    {
      "time": 34.6152,
      "note": 81,
      "noteName": "A5",
      "velocity": 76,
      "duration": 0.2308,
      "track": 1
    },
    {
      "time": 34.846,
      "note": 80,
      "noteName": "G#5",
      "velocity": 70,
      "duration": 0.2308,
      "track": 1
    },
    {
      "time": 35.0768,
      "note": 54,
      "noteName": "F#3",
      "velocity": 75,
      "duration": 0.4615,
      "track": 1
    },
    {
      "time": 35.0768,
      "note": 76,
      "noteName": "E5",
      "velocity": 84,
      "duration": 1.3846,
      "track": 1
    },
    {
      "time": 35.0768,
      "note": 81,
      "noteName": "A5",
      "velocity": 84,
      "duration": 1.3846,
      "track": 1
    },
    {
      "time": 35.5383,
      "note": 61,
      "noteName": "C#4",
      "velocity": 91,
      "duration": 0.4615,
      "track": 1
    },
    {
      "time": 35.9999,
      "note": 66,
      "noteName": "F#4",
      "velocity": 91,
      "duration": 0.9231,
      "track": 1
    },
    {
      "time": 36.4614,
      "note": 69,
      "noteName": "A4",
      "velocity": 52,
      "duration": 0.2308,
      "track": 1
    },
    {
      "time": 36.6922,
      "note": 71,
      "noteName": "B4",
      "velocity": 76,
      "duration": 0.2308,
      "track": 1
    },
    {
      "time": 36.9229,
      "note": 73,
      "noteName": "C#5",
      "velocity": 80,
      "duration": 0.4615,
      "track": 1
    },
    {
      "time": 36.9229,
      "note": 50,
      "noteName": "D3",
      "velocity": 67,
      "duration": 0.4615,
      "track": 1
    },
    {
      "time": 37.3845,
      "note": 64,
      "noteName": "E4",
      "velocity": 55,
      "duration": 0.4615,
      "track": 1
    },
    {
      "time": 37.3845,
      "note": 57,
      "noteName": "A3",
      "velocity": 79,
      "duration": 0.4615,
      "track": 1
    },
    {
      "time": 37.846,
      "note": 69,
      "noteName": "A4",
      "velocity": 82,
      "duration": 0.4615,
      "track": 1
    },
    {
      "time": 37.846,
      "note": 64,
      "noteName": "E4",
      "velocity": 92,
      "duration": 0.9231,
      "track": 1
    },
    {
      "time": 38.3075,
      "note": 73,
      "noteName": "C#5",
      "velocity": 86,
      "duration": 0.2308,
      "track": 1
    },
    {
      "time": 38.5383,
      "note": 74,
      "noteName": "D5",
      "velocity": 83,
      "duration": 0.2308,
      "track": 1
    },
    {
      "time": 38.7691,
      "note": 76,
      "noteName": "E5",
      "velocity": 80,
      "duration": 0.4615,
      "track": 1
    },
    {
      "time": 38.7691,
      "note": 45,
      "noteName": "A2",
      "velocity": 70,
      "duration": 0.4615,
      "track": 1
    },
    {
      "time": 39.2306,
      "note": 64,
      "noteName": "E4",
      "velocity": 58,
      "duration": 0.4615,
      "track": 1
    },
    {
      "time": 39.2306,
      "note": 52,
      "noteName": "E3",
      "velocity": 83,
      "duration": 0.4615,
      "track": 1
    },
    {
      "time": 39.6921,
      "note": 73,
      "noteName": "C#5",
      "velocity": 89,
      "duration": 0.4615,
      "track": 1
    },
    {
      "time": 39.6921,
      "note": 61,
      "noteName": "C#4",
      "velocity": 93,
      "duration": 0.9231,
      "track": 1
    },
    {
      "time": 40.1537,
      "note": 74,
      "noteName": "D5",
      "velocity": 86,
      "duration": 0.2308,
      "track": 1
    },
    {
      "time": 40.3845,
      "note": 73,
      "noteName": "C#5",
      "velocity": 77,
      "duration": 0.2308,
      "track": 1
    },
    {
      "time": 40.6152,
      "note": 52,
      "noteName": "E3",
      "velocity": 70,
      "duration": 0.4615,
      "track": 1
    },
    {
      "time": 40.6152,
      "note": 71,
      "noteName": "B4",
      "velocity": 74,
      "duration": 0.9231,
      "track": 1
    },
    {
      "time": 41.0768,
      "note": 59,
      "noteName": "B3",
      "velocity": 80,
      "duration": 0.4615,
      "track": 1
    },
    {
      "time": 41.5383,
      "note": 81,
      "noteName": "A5",
      "velocity": 95,
      "duration": 0.2308,
      "track": 1
    },
    {
      "time": 41.5383,
      "note": 64,
      "noteName": "E4",
      "velocity": 90,
      "duration": 0.9231,
      "track": 1
    },
    {
      "time": 41.7691,
      "note": 83,
      "noteName": "B5",
      "velocity": 83,
      "duration": 0.2308,
      "track": 1
    },
    {
      "time": 41.9998,
      "note": 81,
      "noteName": "A5",
      "velocity": 71,
      "duration": 0.2308,
      "track": 1
    },
    {
      "time": 42.2306,
      "note": 80,
      "noteName": "G#5",
      "velocity": 76,
      "duration": 0.2308,
      "track": 1
    },
    {
      "time": 42.4614,
      "note": 81,
      "noteName": "A5",
      "velocity": 75,
      "duration": 0.2308,
      "track": 1
    },
    {
      "time": 42.4614,
      "note": 54,
      "noteName": "F#3",
      "velocity": 74,
      "duration": 0.4615,
      "track": 1
    },
    {
      "time": 42.6921,
      "note": 69,
      "noteName": "A4",
      "velocity": 56,
      "duration": 0.2308,
      "track": 1
    },
    {
      "time": 42.9229,
      "note": 76,
      "noteName": "E5",
      "velocity": 86,
      "duration": 0.2308,
      "track": 1
    },
    {
      "time": 42.9229,
      "note": 61,
      "noteName": "C#4",
      "velocity": 89,
      "duration": 0.4615,
      "track": 1
    },
    {
      "time": 43.1537,
      "note": 69,
      "noteName": "A4",
      "velocity": 64,
      "duration": 0.2308,
      "track": 1
    },
    {
      "time": 43.3844,
      "note": 81,
      "noteName": "A5",
      "velocity": 97,
      "duration": 0.2308,
      "track": 1
    },
    {
      "time": 43.3844,
      "note": 66,
      "noteName": "F#4",
      "velocity": 88,
      "duration": 0.4615,
      "track": 1
    },
    {
      "time": 43.6152,
      "note": 83,
      "noteName": "B5",
      "velocity": 88,
      "duration": 0.2308,
      "track": 1
    },
    {
      "time": 43.846,
      "note": 81,
      "noteName": "A5",
      "velocity": 71,
      "duration": 0.2308,
      "track": 1
    },
    {
      "time": 43.846,
      "note": 54,
      "noteName": "F#3",
      "velocity": 65,
      "duration": 0.4615,
      "track": 1
    },
    {
      "time": 44.0767,
      "note": 80,
      "noteName": "G#5",
      "velocity": 70,
      "duration": 0.2308,
      "track": 1
    },
    {
      "time": 44.3075,
      "note": 81,
      "noteName": "A5",
      "velocity": 82,
      "duration": 0.2308,
      "track": 1
    },
    {
      "time": 44.3075,
      "note": 50,
      "noteName": "D3",
      "velocity": 69,
      "duration": 0.4615,
      "track": 1
    },
    {
      "time": 44.5383,
      "note": 69,
      "noteName": "A4",
      "velocity": 56,
      "duration": 0.2308,
      "track": 1
    },
    {
      "time": 44.7691,
      "note": 76,
      "noteName": "E5",
      "velocity": 89,
      "duration": 0.2308,
      "track": 1
    },
    {
      "time": 44.7691,
      "note": 57,
      "noteName": "A3",
      "velocity": 76,
      "duration": 0.4615,
      "track": 1
    },
    {
      "time": 44.9998,
      "note": 69,
      "noteName": "A4",
      "velocity": 64,
      "duration": 0.2308,
      "track": 1
    },
    {
      "time": 45.2306,
      "note": 81,
      "noteName": "A5",
      "velocity": 97,
      "duration": 0.2308,
      "track": 1
    },
    {
      "time": 45.2306,
      "note": 64,
      "noteName": "E4",
      "velocity": 95,
      "duration": 0.4615,
      "track": 1
    },
    {
      "time": 45.4614,
      "note": 83,
      "noteName": "B5",
      "velocity": 88,
      "duration": 0.2308,
      "track": 1
    },
    {
      "time": 45.6921,
      "note": 81,
      "noteName": "A5",
      "velocity": 75,
      "duration": 0.2308,
      "track": 1
    },
    {
      "time": 45.6921,
      "note": 50,
      "noteName": "D3",
      "velocity": 68,
      "duration": 0.4615,
      "track": 1
    },
    {
      "time": 45.9229,
      "note": 80,
      "noteName": "G#5",
      "velocity": 76,
      "duration": 0.2308,
      "track": 1
    },
    {
      "time": 46.1537,
      "note": 81,
      "noteName": "A5",
      "velocity": 80,
      "duration": 0.2308,
      "track": 1
    },
    {
      "time": 46.1537,
      "note": 45,
      "noteName": "A2",
      "velocity": 72,
      "duration": 0.4615,
      "track": 1
    },
    {
      "time": 46.3844,
      "note": 83,
      "noteName": "B5",
      "velocity": 82,
      "duration": 0.2308,
      "track": 1
    },
    {
      "time": 46.6152,
      "note": 85,
      "noteName": "C#6",
      "velocity": 78,
      "duration": 0.2308,
      "track": 1
    },
    {
      "time": 46.6152,
      "note": 52,
      "noteName": "E3",
      "velocity": 87,
      "duration": 0.4615,
      "track": 1
    },
    {
      "time": 46.846,
      "note": 86,
      "noteName": "D6",
      "velocity": 76,
      "duration": 0.2308,
      "track": 1
    },
    {
      "time": 47.0767,
      "note": 88,
      "noteName": "E6",
      "velocity": 80,
      "duration": 0.2308,
      "track": 1
    },
    {
      "time": 47.0767,
      "note": 61,
      "noteName": "C#4",
      "velocity": 94,
      "duration": 0.4615,
      "track": 1
    },
    {
      "time": 47.3075,
      "note": 85,
      "noteName": "C#6",
      "velocity": 72,
      "duration": 0.2308,
      "track": 1
    },
    {
      "time": 47.5383,
      "note": 83,
      "noteName": "B5",
      "velocity": 67,
      "duration": 0.2308,
      "track": 1
    },
    {
      "time": 47.5383,
      "note": 45,
      "noteName": "A2",
      "velocity": 75,
      "duration": 0.4615,
      "track": 1
    },
    {
      "time": 47.769,
      "note": 81,
      "noteName": "A5",
      "velocity": 75,
      "duration": 0.2308,
      "track": 1
    },
    {
      "time": 47.9998,
      "note": 80,
      "noteName": "G#5",
      "velocity": 70,
      "duration": 0.4615,
      "track": 1
    },
    {
      "time": 47.9998,
      "note": 52,
      "noteName": "E3",
      "velocity": 82,
      "duration": 0.4615,
      "track": 1
    },
    {
      "time": 48.4613,
      "note": 71,
      "noteName": "B4",
      "velocity": 58,
      "duration": 0.4615,
      "track": 1
    },
    {
      "time": 48.4613,
      "note": 59,
      "noteName": "B3",
      "velocity": 85,
      "duration": 0.4615,
      "track": 1
    },
    {
      "time": 48.9229,
      "note": 81,
      "noteName": "A5",
      "velocity": 95,
      "duration": 0.2308,
      "track": 1
    },
    {
      "time": 48.9229,
      "note": 64,
      "noteName": "E4",
      "velocity": 88,
      "duration": 0.4615,
      "track": 1
    },
    {
      "time": 49.1536,
      "note": 83,
      "noteName": "B5",
      "velocity": 86,
      "duration": 0.2308,
      "track": 1
    },
    {
      "time": 49.3844,
      "note": 81,
      "noteName": "A5",
      "velocity": 73,
      "duration": 0.2308,
      "track": 1
    },
    {
      "time": 49.3844,
      "note": 52,
      "noteName": "E3",
      "velocity": 70,
      "duration": 0.4615,
      "track": 1
    },
    {
      "time": 49.6152,
      "note": 80,
      "noteName": "G#5",
      "velocity": 77,
      "duration": 0.2308,
      "track": 1
    },
    {
      "time": 49.846,
      "note": 81,
      "noteName": "A5",
      "velocity": 75,
      "duration": 0.2308,
      "track": 1
    },
    {
      "time": 49.846,
      "note": 54,
      "noteName": "F#3",
      "velocity": 79,
      "duration": 0.4615,
      "track": 1
    },
    {
      "time": 50.0767,
      "note": 69,
      "noteName": "A4",
      "velocity": 56,
      "duration": 0.2308,
      "track": 1
    },
    {
      "time": 50.3075,
      "note": 76,
      "noteName": "E5",
      "velocity": 88,
      "duration": 0.2308,
      "track": 1
    },
    {
      "time": 50.3075,
      "note": 61,
      "noteName": "C#4",
      "velocity": 90,
      "duration": 0.4615,
      "track": 1
    },
    {
      "time": 50.5383,
      "note": 69,
      "noteName": "A4",
      "velocity": 64,
      "duration": 0.2308,
      "track": 1
    },
    {
      "time": 50.769,
      "note": 81,
      "noteName": "A5",
      "velocity": 95,
      "duration": 0.2308,
      "track": 1
    },
    {
      "time": 50.769,
      "note": 66,
      "noteName": "F#4",
      "velocity": 88,
      "duration": 0.4615,
      "track": 1
    },
    {
      "time": 50.9998,
      "note": 83,
      "noteName": "B5",
      "velocity": 84,
      "duration": 0.2308,
      "track": 1
    },
    {
      "time": 51.2306,
      "note": 81,
      "noteName": "A5",
      "velocity": 74,
      "duration": 0.2308,
      "track": 1
    },
    {
      "time": 51.2306,
      "note": 54,
      "noteName": "F#3",
      "velocity": 68,
      "duration": 0.4615,
      "track": 1
    },
    {
      "time": 51.4613,
      "note": 80,
      "noteName": "G#5",
      "velocity": 72,
      "duration": 0.2308,
      "track": 1
    },
    {
      "time": 51.6921,
      "note": 81,
      "noteName": "A5",
      "velocity": 81,
      "duration": 0.2308,
      "track": 1
    },
    {
      "time": 51.6921,
      "note": 50,
      "noteName": "D3",
      "velocity": 67,
      "duration": 0.4615,
      "track": 1
    },
    {
      "time": 51.9229,
      "note": 69,
      "noteName": "A4",
      "velocity": 52,
      "duration": 0.2308,
      "track": 1
    },
    {
      "time": 52.1536,
      "note": 76,
      "noteName": "E5",
      "velocity": 90,
      "duration": 0.2308,
      "track": 1
    },
    {
      "time": 52.1536,
      "note": 57,
      "noteName": "A3",
      "velocity": 83,
      "duration": 0.4615,
      "track": 1
    },
    {
      "time": 52.3844,
      "note": 69,
      "noteName": "A4",
      "velocity": 66,
      "duration": 0.2308,
      "track": 1
    },
    {
      "time": 52.6152,
      "note": 81,
      "noteName": "A5",
      "velocity": 96,
      "duration": 0.2308,
      "track": 1
    },
    {
      "time": 52.6152,
      "note": 64,
      "noteName": "E4",
      "velocity": 93,
      "duration": 0.4615,
      "track": 1
    },
    {
      "time": 52.8459,
      "note": 83,
      "noteName": "B5",
      "velocity": 86,
      "duration": 0.2308,
      "track": 1
    },
    {
      "time": 53.0767,
      "note": 81,
      "noteName": "A5",
      "velocity": 74,
      "duration": 0.2308,
      "track": 1
    },
    {
      "time": 53.0767,
      "note": 50,
      "noteName": "D3",
      "velocity": 70,
      "duration": 0.4615,
      "track": 1
    },
    {
      "time": 53.3075,
      "note": 80,
      "noteName": "G#5",
      "velocity": 69,
      "duration": 0.2308,
      "track": 1
    },
    {
      "time": 53.5382,
      "note": 81,
      "noteName": "A5",
      "velocity": 81,
      "duration": 0.2308,
      "track": 1
    },
    {
      "time": 53.5382,
      "note": 45,
      "noteName": "A2",
      "velocity": 71,
      "duration": 0.4615,
      "track": 1
    },
    {
      "time": 53.769,
      "note": 83,
      "noteName": "B5",
      "velocity": 81,
      "duration": 0.2308,
      "track": 1
    },
    {
      "time": 53.9998,
      "note": 85,
      "noteName": "C#6",
      "velocity": 81,
      "duration": 0.2308,
      "track": 1
    },
    {
      "time": 53.9998,
      "note": 52,
      "noteName": "E3",
      "velocity": 85,
      "duration": 0.4615,
      "track": 1
    },
    {
      "time": 54.2305,
      "note": 86,
      "noteName": "D6",
      "velocity": 81,
      "duration": 0.2308,
      "track": 1
    },
    {
      "time": 54.4613,
      "note": 88,
      "noteName": "E6",
      "velocity": 87,
      "duration": 0.2308,
      "track": 1
    },
    {
      "time": 54.4613,
      "note": 61,
      "noteName": "C#4",
      "velocity": 94,
      "duration": 0.4615,
      "track": 1
    },
    {
      "time": 54.6921,
      "note": 85,
      "noteName": "C#6",
      "velocity": 71,
      "duration": 0.2308,
      "track": 1
    },
    {
      "time": 54.9229,
      "note": 83,
      "noteName": "B5",
      "velocity": 68,
      "duration": 0.2308,
      "track": 1
    },
    {
      "time": 54.9229,
      "note": 45,
      "noteName": "A2",
      "velocity": 66,
      "duration": 0.4615,
      "track": 1
    },
    {
      "time": 55.1536,
      "note": 81,
      "noteName": "A5",
      "velocity": 72,
      "duration": 0.2308,
      "track": 1
    },
    {
      "time": 55.3844,
      "note": 80,
      "noteName": "G#5",
      "velocity": 72,
      "duration": 0.4615,
      "track": 1
    },
    {
      "time": 55.3844,
      "note": 52,
      "noteName": "E3",
      "velocity": 83,
      "duration": 0.4615,
      "track": 1
    },
    {
      "time": 55.8459,
      "note": 71,
      "noteName": "B4",
      "velocity": 55,
      "duration": 0.4615,
      "track": 1
    },
    {
      "time": 55.8459,
      "note": 59,
      "noteName": "B3",
      "velocity": 85,
      "duration": 0.4615,
      "track": 1
    },
    {
      "time": 56.3075,
      "note": 81,
      "noteName": "A5",
      "velocity": 94,
      "duration": 0.2308,
      "track": 1
    },
    {
      "time": 56.3075,
      "note": 64,
      "noteName": "E4",
      "velocity": 87,
      "duration": 0.4615,
      "track": 1
    },
    {
      "time": 56.5382,
      "note": 81,
      "noteName": "A5",
      "velocity": 83,
      "duration": 0.1154,
      "track": 1
    },
    {
      "time": 56.6536,
      "note": 83,
      "noteName": "B5",
      "velocity": 79,
      "duration": 0.2308,
      "track": 1
    },
    {
      "time": 56.769,
      "note": 52,
      "noteName": "E3",
      "velocity": 71,
      "duration": 0.4615,
      "track": 1
    },
    {
      "time": 56.8844,
      "note": 81,
      "noteName": "A5",
      "velocity": 74,
      "duration": 0.2308,
      "track": 1
    },
    {
      "time": 57.1152,
      "note": 80,
      "noteName": "G#5",
      "velocity": 75,
      "duration": 0.1154,
      "track": 1
    },
    {
      "time": 57.2305,
      "note": 81,
      "noteName": "A5",
      "velocity": 81,
      "duration": 0.2308,
      "track": 1
    },
    {
      "time": 57.2305,
      "note": 42,
      "noteName": "F#2",
      "velocity": 67,
      "duration": 0.4615,
      "track": 1
    },
    {
      "time": 57.4613,
      "note": 69,
      "noteName": "A4",
      "velocity": 52,
      "duration": 0.2308,
      "track": 1
    },
    {
      "time": 57.6921,
      "note": 76,
      "noteName": "E5",
      "velocity": 91,
      "duration": 0.2308,
      "track": 1
    },
    {
      "time": 57.6921,
      "note": 49,
      "noteName": "C#3",
      "velocity": 82,
      "duration": 0.4615,
      "track": 1
    },
    {
      "time": 57.9228,
      "note": 69,
      "noteName": "A4",
      "velocity": 66,
      "duration": 0.2308,
      "track": 1
    },
    {
      "time": 58.1536,
      "note": 81,
      "noteName": "A5",
      "velocity": 92,
      "duration": 0.3462,
      "track": 1
    },
    {
      "time": 58.1536,
      "note": 54,
      "noteName": "F#3",
      "velocity": 81,
      "duration": 0.4615,
      "track": 1
    },
    {
      "time": 58.4998,
      "note": 83,
      "noteName": "B5",
      "velocity": 80,
      "duration": 0.1154,
      "track": 1
    },
    {
      "time": 58.6151,
      "note": 81,
      "noteName": "A5",
      "velocity": 76,
      "duration": 0.2308,
      "track": 1
    },
    {
      "time": 58.6151,
      "note": 42,
      "noteName": "F#2",
      "velocity": 68,
      "duration": 0.4615,
      "track": 1
    },
    {
      "time": 58.8459,
      "note": 80,
      "noteName": "G#5",
      "velocity": 74,
      "duration": 0.2308,
      "track": 1
    },
    {
      "time": 59.0767,
      "note": 81,
      "noteName": "A5",
      "velocity": 79,
      "duration": 0.2308,
      "track": 1
    },
    {
      "time": 59.0767,
      "note": 50,
      "noteName": "D3",
      "velocity": 84,
      "duration": 0.4615,
      "track": 1
    },
    {
      "time": 59.3075,
      "note": 69,
      "noteName": "A4",
      "velocity": 55,
      "duration": 0.2308,
      "track": 1
    },
    {
      "time": 59.5382,
      "note": 76,
      "noteName": "E5",
      "velocity": 87,
      "duration": 0.2308,
      "track": 1
    },
    {
      "time": 59.5382,
      "note": 57,
      "noteName": "A3",
      "velocity": 82,
      "duration": 0.4615,
      "track": 1
    },
    {
      "time": 59.769,
      "note": 69,
      "noteName": "A4",
      "velocity": 63,
      "duration": 0.2308,
      "track": 1
    },
    {
      "time": 59.9998,
      "note": 81,
      "noteName": "A5",
      "velocity": 98,
      "duration": 0.3462,
      "track": 1
    },
    {
      "time": 59.9998,
      "note": 64,
      "noteName": "E4",
      "velocity": 92,
      "duration": 0.4615,
      "track": 1
    },
    {
      "time": 60.3459,
      "note": 83,
      "noteName": "B5",
      "velocity": 82,
      "duration": 0.1154,
      "track": 1
    },
    {
      "time": 60.4613,
      "note": 81,
      "noteName": "A5",
      "velocity": 73,
      "duration": 0.2308,
      "track": 1
    },
    {
      "time": 60.4613,
      "note": 50,
      "noteName": "D3",
      "velocity": 71,
      "duration": 0.4615,
      "track": 1
    },
    {
      "time": 60.6921,
      "note": 80,
      "noteName": "G#5",
      "velocity": 70,
      "duration": 0.2308,
      "track": 1
    },
    {
      "time": 60.9228,
      "note": 81,
      "noteName": "A5",
      "velocity": 78,
      "duration": 0.2308,
      "track": 1
    },
    {
      "time": 60.9228,
      "note": 45,
      "noteName": "A2",
      "velocity": 71,
      "duration": 0.4615,
      "track": 1
    },
    {
      "time": 61.1536,
      "note": 83,
      "noteName": "B5",
      "velocity": 79,
      "duration": 0.2308,
      "track": 1
    },
    {
      "time": 61.3844,
      "note": 85,
      "noteName": "C#6",
      "velocity": 79,
      "duration": 0.2308,
      "track": 1
    },
    {
      "time": 61.3844,
      "note": 52,
      "noteName": "E3",
      "velocity": 80,
      "duration": 0.4615,
      "track": 1
    },
    {
      "time": 61.6151,
      "note": 86,
      "noteName": "D6",
      "velocity": 81,
      "duration": 0.2308,
      "track": 1
    },
    {
      "time": 61.8459,
      "note": 88,
      "noteName": "E6",
      "velocity": 80,
      "duration": 0.2308,
      "track": 1
    },
    {
      "time": 61.8459,
      "note": 61,
      "noteName": "C#4",
      "velocity": 91,
      "duration": 0.4615,
      "track": 1
    },
    {
      "time": 62.0767,
      "note": 85,
      "noteName": "C#6",
      "velocity": 66,
      "duration": 0.2308,
      "track": 1
    },
    {
      "time": 62.3074,
      "note": 83,
      "noteName": "B5",
      "velocity": 70,
      "duration": 0.2308,
      "track": 1
    },
    {
      "time": 62.3074,
      "note": 45,
      "noteName": "A2",
      "velocity": 66,
      "duration": 0.4615,
      "track": 1
    },
    {
      "time": 62.5382,
      "note": 81,
      "noteName": "A5",
      "velocity": 71,
      "duration": 0.2308,
      "track": 1
    },
    {
      "time": 62.769,
      "note": 80,
      "noteName": "G#5",
      "velocity": 71,
      "duration": 0.4615,
      "track": 1
    },
    {
      "time": 62.769,
      "note": 42,
      "noteName": "F#2",
      "velocity": 73,
      "duration": 0.4615,
      "track": 1
    },
    {
      "time": 63.2305,
      "note": 71,
      "noteName": "B4",
      "velocity": 61,
      "duration": 0.4615,
      "track": 1
    },
    {
      "time": 63.2305,
      "note": 47,
      "noteName": "B2",
      "velocity": 83,
      "duration": 0.4615,
      "track": 1
    },
    {
      "time": 63.692,
      "note": 81,
      "noteName": "A5",
      "velocity": 94,
      "duration": 0.3462,
      "track": 1
    },
    {
      "time": 63.692,
      "note": 56,
      "noteName": "G#3",
      "velocity": 83,
      "duration": 0.4615,
      "track": 1
    },
    {
      "time": 64.0382,
      "note": 83,
      "noteName": "B5",
      "velocity": 84,
      "duration": 0.1154,
      "track": 1
    },
    {
      "time": 64.1536,
      "note": 81,
      "noteName": "A5",
      "velocity": 71,
      "duration": 0.2308,
      "track": 1
    },
    {
      "time": 64.1536,
      "note": 42,
      "noteName": "F#2",
      "velocity": 68,
      "duration": 0.4615,
      "track": 1
    },
    {
      "time": 64.3844,
      "note": 80,
      "noteName": "G#5",
      "velocity": 69,
      "duration": 0.2308,
      "track": 1
    },
    {
      "time": 64.6151,
      "note": 81,
      "noteName": "A5",
      "velocity": 77,
      "duration": 0.2308,
      "track": 1
    },
    {
      "time": 64.6151,
      "note": 42,
      "noteName": "F#2",
      "velocity": 74,
      "duration": 0.4615,
      "track": 1
    },
    {
      "time": 64.8459,
      "note": 69,
      "noteName": "A4",
      "velocity": 61,
      "duration": 0.2308,
      "track": 1
    },
    {
      "time": 65.0767,
      "note": 78,
      "noteName": "F#5",
      "velocity": 88,
      "duration": 0.2308,
      "track": 1
    },
    {
      "time": 65.0767,
      "note": 49,
      "noteName": "C#3",
      "velocity": 88,
      "duration": 0.4615,
      "track": 1
    },
    {
      "time": 65.3074,
      "note": 69,
      "noteName": "A4",
      "velocity": 64,
      "duration": 0.2308,
      "track": 1
    },
    {
      "time": 65.5382,
      "note": 81,
      "noteName": "A5",
      "velocity": 94,
      "duration": 0.3462,
      "track": 1
    },
    {
      "time": 65.5382,
      "note": 54,
      "noteName": "F#3",
      "velocity": 82,
      "duration": 0.4615,
      "track": 1
    },
    {
      "time": 65.8843,
      "note": 83,
      "noteName": "B5",
      "velocity": 83,
      "duration": 0.1154,
      "track": 1
    },
    {
      "time": 65.9997,
      "note": 81,
      "noteName": "A5",
      "velocity": 78,
      "duration": 0.2308,
      "track": 1
    },
    {
      "time": 65.9997,
      "note": 42,
      "noteName": "F#2",
      "velocity": 64,
      "duration": 0.4615,
      "track": 1
    },
    {
      "time": 66.2305,
      "note": 80,
      "noteName": "G#5",
      "velocity": 70,
      "duration": 0.2308,
      "track": 1
    },
    {
      "time": 66.4613,
      "note": 81,
      "noteName": "A5",
      "velocity": 80,
      "duration": 0.2308,
      "track": 1
    },
    {
      "time": 66.4613,
      "note": 50,
      "noteName": "D3",
      "velocity": 78,
      "duration": 0.4615,
      "track": 1
    },
    {
      "time": 66.692,
      "note": 69,
      "noteName": "A4",
      "velocity": 53,
      "duration": 0.2308,
      "track": 1
    },
    {
      "time": 66.9228,
      "note": 76,
      "noteName": "E5",
      "velocity": 89,
      "duration": 0.2308,
      "track": 1
    },
    {
      "time": 66.9228,
      "note": 57,
      "noteName": "A3",
      "velocity": 81,
      "duration": 0.4615,
      "track": 1
    },
    {
      "time": 67.1536,
      "note": 69,
      "noteName": "A4",
      "velocity": 67,
      "duration": 0.2308,
      "track": 1
    },
    {
      "time": 67.3843,
      "note": 81,
      "noteName": "A5",
      "velocity": 95,
      "duration": 0.2308,
      "track": 1
    },
    {
      "time": 67.3843,
      "note": 64,
      "noteName": "E4",
      "velocity": 87,
      "duration": 0.4615,
      "track": 1
    },
    {
      "time": 67.6151,
      "note": 83,
      "noteName": "B5",
      "velocity": 82,
      "duration": 0.2308,
      "track": 1
    },
    {
      "time": 67.8459,
      "note": 81,
      "noteName": "A5",
      "velocity": 71,
      "duration": 0.2308,
      "track": 1
    },
    {
      "time": 67.8459,
      "note": 50,
      "noteName": "D3",
      "velocity": 68,
      "duration": 0.4615,
      "track": 1
    },
    {
      "time": 68.0766,
      "note": 80,
      "noteName": "G#5",
      "velocity": 72,
      "duration": 0.2308,
      "track": 1
    },
    {
      "time": 68.3074,
      "note": 81,
      "noteName": "A5",
      "velocity": 80,
      "duration": 0.2308,
      "track": 1
    },
    {
      "time": 68.3074,
      "note": 45,
      "noteName": "A2",
      "velocity": 73,
      "duration": 0.4615,
      "track": 1
    },
    {
      "time": 68.5382,
      "note": 83,
      "noteName": "B5",
      "velocity": 81,
      "duration": 0.2308,
      "track": 1
    },
    {
      "time": 68.7689,
      "note": 85,
      "noteName": "C#6",
      "velocity": 84,
      "duration": 0.2308,
      "track": 1
    },
    {
      "time": 68.7689,
      "note": 52,
      "noteName": "E3",
      "velocity": 82,
      "duration": 0.4615,
      "track": 1
    },
    {
      "time": 68.9997,
      "note": 86,
      "noteName": "D6",
      "velocity": 79,
      "duration": 0.2308,
      "track": 1
    },
    {
      "time": 69.2305,
      "note": 88,
      "noteName": "E6",
      "velocity": 83,
      "duration": 0.2308,
      "track": 1
    },
    {
      "time": 69.2305,
      "note": 59,
      "noteName": "B3",
      "velocity": 83,
      "duration": 0.4615,
      "track": 1
    },
    {
      "time": 69.4613,
      "note": 85,
      "noteName": "C#6",
      "velocity": 69,
      "duration": 0.2308,
      "track": 1
    },
    {
      "time": 69.692,
      "note": 83,
      "noteName": "B5",
      "velocity": 73,
      "duration": 0.2308,
      "track": 1
    },
    {
      "time": 69.692,
      "note": 45,
      "noteName": "A2",
      "velocity": 64,
      "duration": 0.4615,
      "track": 1
    },
    {
      "time": 69.9228,
      "note": 81,
      "noteName": "A5",
      "velocity": 77,
      "duration": 0.2308,
      "track": 1
    },
    {
      "time": 70.1536,
      "note": 80,
      "noteName": "G#5",
      "velocity": 71,
      "duration": 0.4615,
      "track": 1
    },
    {
      "time": 70.1536,
      "note": 42,
      "noteName": "F#2",
      "velocity": 68,
      "duration": 0.4615,
      "track": 1
    },
    {
      "time": 70.6151,
      "note": 71,
      "noteName": "B4",
      "velocity": 60,
      "duration": 0.4615,
      "track": 1
    },
    {
      "time": 70.6151,
      "note": 47,
      "noteName": "B2",
      "velocity": 81,
      "duration": 0.4615,
      "track": 1
    },
    {
      "time": 71.0766,
      "note": 68,
      "noteName": "G#4",
      "velocity": 65,
      "duration": 0.6923,
      "track": 1
    },
    {
      "time": 71.0766,
      "note": 56,
      "noteName": "G#3",
      "velocity": 88,
      "duration": 3.4615,
      "track": 1
    },
    {
      "time": 71.7689,
      "note": 64,
      "noteName": "E4",
      "velocity": 67,
      "duration": 2.0769,
      "track": 1
    },
    {
      "time": 73.8458,
      "note": 69,
      "noteName": "A4",
      "velocity": 87,
      "duration": 0.3462,
      "track": 1
    },
    {
      "time": 74.192,
      "note": 73,
      "noteName": "C#5",
      "velocity": 86,
      "duration": 0.3462,
      "track": 1
    },
    {
      "time": 74.5382,
      "note": 81,
      "noteName": "A5",
      "velocity": 97,
      "duration": 0.4615,
      "track": 1
    },
    {
      "time": 74.5382,
      "note": 54,
      "noteName": "F#3",
      "velocity": 76,
      "duration": 0.4615,
      "track": 1
    },
    {
      "time": 74.9997,
      "note": 80,
      "noteName": "G#5",
      "velocity": 75,
      "duration": 0.2308,
      "track": 1
    },
    {
      "time": 74.9997,
      "note": 61,
      "noteName": "C#4",
      "velocity": 91,
      "duration": 0.4615,
      "track": 1
    },
    {
      "time": 75.2305,
      "note": 81,
      "noteName": "A5",
      "velocity": 90,
      "duration": 0.2308,
      "track": 1
    },
    {
      "time": 75.4612,
      "note": 81,
      "noteName": "A5",
      "velocity": 82,
      "duration": 0.2308,
      "track": 1
    },
    {
      "time": 75.4612,
      "note": 66,
      "noteName": "F#4",
      "velocity": 87,
      "duration": 0.9231,
      "track": 1
    },
    {
      "time": 75.692,
      "note": 69,
      "noteName": "A4",
      "velocity": 58,
      "duration": 0.2308,
      "track": 1
    },
    {
      "time": 75.9228,
      "note": 80,
      "noteName": "G#5",
      "velocity": 92,
      "duration": 0.2308,
      "track": 1
    },
    {
      "time": 76.1535,
      "note": 81,
      "noteName": "A5",
      "velocity": 93,
      "duration": 0.2308,
      "track": 1
    },
    {
      "time": 76.3843,
      "note": 81,
      "noteName": "A5",
      "velocity": 80,
      "duration": 0.2308,
      "track": 1
    },
    {
      "time": 76.3843,
      "note": 50,
      "noteName": "D3",
      "velocity": 68,
      "duration": 0.4615,
      "track": 1
    },
    {
      "time": 76.6151,
      "note": 69,
      "noteName": "A4",
      "velocity": 57,
      "duration": 0.2308,
      "track": 1
    },
    {
      "time": 76.8458,
      "note": 76,
      "noteName": "E5",
      "velocity": 88,
      "duration": 0.2308,
      "track": 1
    },
    {
      "time": 76.8458,
      "note": 57,
      "noteName": "A3",
      "velocity": 82,
      "duration": 0.4615,
      "track": 1
    },
    {
      "time": 77.0766,
      "note": 81,
      "noteName": "A5",
      "velocity": 98,
      "duration": 0.2308,
      "track": 1
    },
    {
      "time": 77.3074,
      "note": 81,
      "noteName": "A5",
      "velocity": 84,
      "duration": 0.2308,
      "track": 1
    },
    {
      "time": 77.3074,
      "note": 64,
      "noteName": "E4",
      "velocity": 90,
      "duration": 0.4615,
      "track": 1
    },
    {
      "time": 77.5381,
      "note": 69,
      "noteName": "A4",
      "velocity": 61,
      "duration": 0.2308,
      "track": 1
    },
    {
      "time": 77.7689,
      "note": 74,
      "noteName": "D5",
      "velocity": 83,
      "duration": 0.2308,
      "track": 1
    },
    {
      "time": 77.7689,
      "note": 50,
      "noteName": "D3",
      "velocity": 70,
      "duration": 0.4615,
      "track": 1
    },
    {
      "time": 77.9997,
      "note": 69,
      "noteName": "A4",
      "velocity": 68,
      "duration": 0.2308,
      "track": 1
    },
    {
      "time": 78.2304,
      "note": 73,
      "noteName": "C#5",
      "velocity": 80,
      "duration": 0.4615,
      "track": 1
    },
    {
      "time": 78.2304,
      "note": 45,
      "noteName": "A2",
      "velocity": 72,
      "duration": 0.4615,
      "track": 1
    },
    {
      "time": 78.692,
      "note": 74,
      "noteName": "D5",
      "velocity": 79,
      "duration": 0.4615,
      "track": 1
    },
    {
      "time": 78.692,
      "note": 52,
      "noteName": "E3",
      "velocity": 85,
      "duration": 0.4615,
      "track": 1
    },
    {
      "time": 79.1535,
      "note": 69,
      "noteName": "A4",
      "velocity": 82,
      "duration": 0.4615,
      "track": 1
    },
    {
      "time": 79.1535,
      "note": 76,
      "noteName": "E5",
      "velocity": 82,
      "duration": 0.4615,
      "track": 1
    },
    {
      "time": 79.1535,
      "note": 61,
      "noteName": "C#4",
      "velocity": 96,
      "duration": 0.4615,
      "track": 1
    },
    {
      "time": 79.6151,
      "note": 73,
      "noteName": "C#5",
      "velocity": 66,
      "duration": 0.4615,
      "track": 1
    },
    {
      "time": 79.6151,
      "note": 45,
      "noteName": "A2",
      "velocity": 69,
      "duration": 0.4615,
      "track": 1
    },
    {
      "time": 80.0766,
      "note": 52,
      "noteName": "E3",
      "velocity": 85,
      "duration": 0.4615,
      "track": 1
    },
    {
      "time": 80.0766,
      "note": 68,
      "noteName": "G#4",
      "velocity": 70,
      "duration": 1.3846,
      "track": 1
    },
    {
      "time": 80.0766,
      "note": 71,
      "noteName": "B4",
      "velocity": 70,
      "duration": 1.3846,
      "track": 1
    },
    {
      "time": 80.5381,
      "note": 59,
      "noteName": "B3",
      "velocity": 82,
      "duration": 0.4615,
      "track": 1
    },
    {
      "time": 80.9997,
      "note": 64,
      "noteName": "E4",
      "velocity": 90,
      "duration": 0.9231,
      "track": 1
    },
    {
      "time": 81.4612,
      "note": 69,
      "noteName": "A4",
      "velocity": 74,
      "duration": 0.2308,
      "track": 1
    },
    {
      "time": 81.692,
      "note": 68,
      "noteName": "G#4",
      "velocity": 78,
      "duration": 0.2308,
      "track": 1
    },
    {
      "time": 81.9227,
      "note": 54,
      "noteName": "F#3",
      "velocity": 72,
      "duration": 0.4615,
      "track": 1
    },
    {
      "time": 81.9227,
      "note": 64,
      "noteName": "E4",
      "velocity": 74,
      "duration": 1.1538,
      "track": 1
    },
    {
      "time": 81.9227,
      "note": 69,
      "noteName": "A4",
      "velocity": 74,
      "duration": 1.1538,
      "track": 1
    },
    {
      "time": 82.3843,
      "note": 59,
      "noteName": "B3",
      "velocity": 77,
      "duration": 1.3846,
      "track": 1
    },
    {
      "time": 83.0766,
      "note": 64,
      "noteName": "E4",
      "velocity": 68,
      "duration": 0.2308,
      "track": 1
    },
    {
      "time": 83.3073,
      "note": 69,
      "noteName": "A4",
      "velocity": 84,
      "duration": 0.2308,
      "track": 1
    },
    {
      "time": 83.5381,
      "note": 71,
      "noteName": "B4",
      "velocity": 83,
      "duration": 0.2308,
      "track": 1
    },
    {
      "time": 83.7689,
      "note": 73,
      "noteName": "C#5",
      "velocity": 81,
      "duration": 0.2308,
      "track": 1
    },
    {
      "time": 83.7689,
      "note": 50,
      "noteName": "D3",
      "velocity": 68,
      "duration": 0.4615,
      "track": 1
    },
    {
      "time": 83.9997,
      "note": 64,
      "noteName": "E4",
      "velocity": 60,
      "duration": 0.2308,
      "track": 1
    },
    {
      "time": 84.2304,
      "note": 69,
      "noteName": "A4",
      "velocity": 82,
      "duration": 0.2308,
      "track": 1
    },
    {
      "time": 84.2304,
      "note": 64,
      "noteName": "E4",
      "velocity": 91,
      "duration": 0.9231,
      "track": 1
    },
    {
      "time": 84.4612,
      "note": 71,
      "noteName": "B4",
      "velocity": 85,
      "duration": 0.2308,
      "track": 1
    },
    {
      "time": 84.692,
      "note": 73,
      "noteName": "C#5",
      "velocity": 83,
      "duration": 0.2308,
      "track": 1
    },
    {
      "time": 84.9227,
      "note": 64,
      "noteName": "E4",
      "velocity": 63,
      "duration": 0.2308,
      "track": 1
    },
    {
      "time": 85.1535,
      "note": 73,
      "noteName": "C#5",
      "velocity": 88,
      "duration": 0.2308,
      "track": 1
    },
    {
      "time": 85.1535,
      "note": 64,
      "noteName": "E4",
      "velocity": 86,
      "duration": 0.4615,
      "track": 1
    },
    {
      "time": 85.3843,
      "note": 74,
      "noteName": "D5",
      "velocity": 82,
      "duration": 0.2308,
      "track": 1
    },
    {
      "time": 85.615,
      "note": 76,
      "noteName": "E5",
      "velocity": 85,
      "duration": 0.2308,
      "track": 1
    },
    {
      "time": 85.615,
      "note": 45,
      "noteName": "A2",
      "velocity": 66,
      "duration": 0.4615,
      "track": 1
    },
    {
      "time": 85.8458,
      "note": 64,
      "noteName": "E4",
      "velocity": 60,
      "duration": 0.2308,
      "track": 1
    },
    {
      "time": 86.0766,
      "note": 73,
      "noteName": "C#5",
      "velocity": 90,
      "duration": 0.2308,
      "track": 1
    },
    {
      "time": 86.0766,
      "note": 52,
      "noteName": "E3",
      "velocity": 83,
      "duration": 0.4615,
      "track": 1
    },
    {
      "time": 86.3073,
      "note": 74,
      "noteName": "D5",
      "velocity": 82,
      "duration": 0.2308,
      "track": 1
    },
    {
      "time": 86.5381,
      "note": 76,
      "noteName": "E5",
      "velocity": 78,
      "duration": 0.2308,
      "track": 1
    },
    {
      "time": 86.5381,
      "note": 61,
      "noteName": "C#4",
      "velocity": 94,
      "duration": 0.4615,
      "track": 1
    },
    {
      "time": 86.7689,
      "note": 64,
      "noteName": "E4",
      "velocity": 57,
      "duration": 0.2308,
      "track": 1
    },
    {
      "time": 86.9996,
      "note": 74,
      "noteName": "D5",
      "velocity": 90,
      "duration": 0.2308,
      "track": 1
    },
    {
      "time": 86.9996,
      "note": 45,
      "noteName": "A2",
      "velocity": 67,
      "duration": 0.4615,
      "track": 1
    },
    {
      "time": 87.2304,
      "note": 73,
      "noteName": "C#5",
      "velocity": 75,
      "duration": 0.2308,
      "track": 1
    },
    {
      "time": 87.4612,
      "note": 71,
      "noteName": "B4",
      "velocity": 75,
      "duration": 0.2308,
      "track": 1
    },
    {
      "time": 87.4612,
      "note": 52,
      "noteName": "E3",
      "velocity": 79,
      "duration": 0.4615,
      "track": 1
    },
    {
      "time": 87.6919,
      "note": 64,
      "noteName": "E4",
      "velocity": 61,
      "duration": 0.2308,
      "track": 1
    },
    {
      "time": 87.9227,
      "note": 74,
      "noteName": "D5",
      "velocity": 91,
      "duration": 0.2308,
      "track": 1
    },
    {
      "time": 87.9227,
      "note": 59,
      "noteName": "B3",
      "velocity": 87,
      "duration": 0.4615,
      "track": 1
    },
    {
      "time": 88.1535,
      "note": 73,
      "noteName": "C#5",
      "velocity": 75,
      "duration": 0.2308,
      "track": 1
    },
    {
      "time": 88.3842,
      "note": 71,
      "noteName": "B4",
      "velocity": 73,
      "duration": 0.4615,
      "track": 1
    },
    {
      "time": 88.3842,
      "note": 64,
      "noteName": "E4",
      "velocity": 84,
      "duration": 0.9231,
      "track": 1
    },
    {
      "time": 88.8458,
      "note": 68,
      "noteName": "G#4",
      "velocity": 68,
      "duration": 0.4615,
      "track": 1
    },
    {
      "time": 89.3073,
      "note": 81,
      "noteName": "A5",
      "velocity": 94,
      "duration": 0.4615,
      "track": 1
    },
    {
      "time": 89.3073,
      "note": 54,
      "noteName": "F#3",
      "velocity": 66,
      "duration": 0.4615,
      "track": 1
    },
    {
      "time": 89.7689,
      "note": 80,
      "noteName": "G#5",
      "velocity": 77,
      "duration": 0.2308,
      "track": 1
    },
    {
      "time": 89.7689,
      "note": 61,
      "noteName": "C#4",
      "velocity": 90,
      "duration": 0.4615,
      "track": 1
    },
    {
      "time": 89.9996,
      "note": 81,
      "noteName": "A5",
      "velocity": 78,
      "duration": 0.4615,
      "track": 1
    },
    {
      "time": 90.2304,
      "note": 66,
      "noteName": "F#4",
      "velocity": 88,
      "duration": 0.4615,
      "track": 1
    },
    {
      "time": 90.4612,
      "note": 69,
      "noteName": "A4",
      "velocity": 52,
      "duration": 0.2308,
      "track": 1
    },
    {
      "time": 90.6919,
      "note": 80,
      "noteName": "G#5",
      "velocity": 89,
      "duration": 0.2308,
      "track": 1
    },
    {
      "time": 90.6919,
      "note": 54,
      "noteName": "F#3",
      "velocity": 67,
      "duration": 0.4615,
      "track": 1
    },
    {
      "time": 90.9227,
      "note": 81,
      "noteName": "A5",
      "velocity": 82,
      "duration": 0.4615,
      "track": 1
    },
    {
      "time": 91.1535,
      "note": 50,
      "noteName": "D3",
      "velocity": 67,
      "duration": 0.4615,
      "track": 1
    },
    {
      "time": 91.3842,
      "note": 69,
      "noteName": "A4",
      "velocity": 55,
      "duration": 0.2308,
      "track": 1
    },
    {
      "time": 91.615,
      "note": 76,
      "noteName": "E5",
      "velocity": 85,
      "duration": 0.2308,
      "track": 1
    },
    {
      "time": 91.615,
      "note": 57,
      "noteName": "A3",
      "velocity": 79,
      "duration": 0.4615,
      "track": 1
    },
    {
      "time": 91.8458,
      "note": 81,
      "noteName": "A5",
      "velocity": 87,
      "duration": 0.4615,
      "track": 1
    },
    {
      "time": 92.0765,
      "note": 64,
      "noteName": "E4",
      "velocity": 91,
      "duration": 0.4615,
      "track": 1
    },
    {
      "time": 92.3073,
      "note": 69,
      "noteName": "A4",
      "velocity": 56,
      "duration": 0.2308,
      "track": 1
    },
    {
      "time": 92.5381,
      "note": 74,
      "noteName": "D5",
      "velocity": 82,
      "duration": 0.2308,
      "track": 1
    },
    {
      "time": 92.5381,
      "note": 50,
      "noteName": "D3",
      "velocity": 70,
      "duration": 0.4615,
      "track": 1
    },
    {
      "time": 92.7688,
      "note": 69,
      "noteName": "A4",
      "velocity": 68,
      "duration": 0.2308,
      "track": 1
    },
    {
      "time": 92.9996,
      "note": 73,
      "noteName": "C#5",
      "velocity": 87,
      "duration": 0.4615,
      "track": 1
    },
    {
      "time": 92.9996,
      "note": 45,
      "noteName": "A2",
      "velocity": 69,
      "duration": 0.4615,
      "track": 1
    },
    {
      "time": 93.4611,
      "note": 74,
      "noteName": "D5",
      "velocity": 84,
      "duration": 0.4615,
      "track": 1
    },
    {
      "time": 93.4611,
      "note": 52,
      "noteName": "E3",
      "velocity": 84,
      "duration": 0.4615,
      "track": 1
    },
    {
      "time": 93.9227,
      "note": 76,
      "noteName": "E5",
      "velocity": 82,
      "duration": 0.4615,
      "track": 1
    },
    {
      "time": 93.9227,
      "note": 61,
      "noteName": "C#4",
      "velocity": 94,
      "duration": 0.4615,
      "track": 1
    },
    {
      "time": 94.3842,
      "note": 85,
      "noteName": "C#6",
      "velocity": 97,
      "duration": 0.4615,
      "track": 1
    },
    {
      "time": 94.3842,
      "note": 45,
      "noteName": "A2",
      "velocity": 70,
      "duration": 0.4615,
      "track": 1
    },
    {
      "time": 94.8458,
      "note": 83,
      "noteName": "B5",
      "velocity": 72,
      "duration": 0.4615,
      "track": 1
    },
    {
      "time": 94.8458,
      "note": 52,
      "noteName": "E3",
      "velocity": 82,
      "duration": 0.4615,
      "track": 1
    },
    {
      "time": 95.3073,
      "note": 76,
      "noteName": "E5",
      "velocity": 63,
      "duration": 0.4615,
      "track": 1
    },
    {
      "time": 95.3073,
      "note": 59,
      "noteName": "B3",
      "velocity": 87,
      "duration": 0.4615,
      "track": 1
    },
    {
      "time": 95.7688,
      "note": 83,
      "noteName": "B5",
      "velocity": 88,
      "duration": 0.4615,
      "track": 1
    },
    {
      "time": 95.7688,
      "note": 64,
      "noteName": "E4",
      "velocity": 82,
      "duration": 0.4615,
      "track": 1
    },
    {
      "time": 96.2304,
      "note": 81,
      "noteName": "A5",
      "velocity": 70,
      "duration": 0.2308,
      "track": 1
    },
    {
      "time": 96.2304,
      "note": 52,
      "noteName": "E3",
      "velocity": 70,
      "duration": 0.4615,
      "track": 1
    },
    {
      "time": 96.4611,
      "note": 80,
      "noteName": "G#5",
      "velocity": 74,
      "duration": 0.2308,
      "track": 1
    },
    {
      "time": 96.6919,
      "note": 54,
      "noteName": "F#3",
      "velocity": 79,
      "duration": 0.4615,
      "track": 1
    },
    {
      "time": 96.6919,
      "note": 76,
      "noteName": "E5",
      "velocity": 81,
      "duration": 1.3846,
      "track": 1
    },
    {
      "time": 96.6919,
      "note": 81,
      "noteName": "A5",
      "velocity": 81,
      "duration": 1.3846,
      "track": 1
    },
    {
      "time": 97.1534,
      "note": 61,
      "noteName": "C#4",
      "velocity": 90,
      "duration": 0.4615,
      "track": 1
    },
    {
      "time": 97.615,
      "note": 66,
      "noteName": "F#4",
      "velocity": 87,
      "duration": 0.9231,
      "track": 1
    },
    {
      "time": 98.0765,
      "note": 69,
      "noteName": "A4",
      "velocity": 58,
      "duration": 0.2308,
      "track": 1
    },
    {
      "time": 98.3073,
      "note": 71,
      "noteName": "B4",
      "velocity": 77,
      "duration": 0.2308,
      "track": 1
    },
    {
      "time": 98.5381,
      "note": 73,
      "noteName": "C#5",
      "velocity": 86,
      "duration": 0.2308,
      "track": 1
    },
    {
      "time": 98.5381,
      "note": 50,
      "noteName": "D3",
      "velocity": 64,
      "duration": 0.4615,
      "track": 1
    },
    {
      "time": 98.7688,
      "note": 64,
      "noteName": "E4",
      "velocity": 56,
      "duration": 0.2308,
      "track": 1
    },
    {
      "time": 98.9996,
      "note": 69,
      "noteName": "A4",
      "velocity": 88,
      "duration": 0.2308,
      "track": 1
    },
    {
      "time": 98.9996,
      "note": 57,
      "noteName": "A3",
      "velocity": 82,
      "duration": 0.4615,
      "track": 1
    },
    {
      "time": 99.2304,
      "note": 71,
      "noteName": "B4",
      "velocity": 79,
      "duration": 0.2308,
      "track": 1
    },
    {
      "time": 99.4611,
      "note": 73,
      "noteName": "C#5",
      "velocity": 84,
      "duration": 0.2308,
      "track": 1
    },
    {
      "time": 99.4611,
      "note": 64,
      "noteName": "E4",
      "velocity": 94,
      "duration": 0.4615,
      "track": 1
    },
    {
      "time": 99.6919,
      "note": 64,
      "noteName": "E4",
      "velocity": 59,
      "duration": 0.2308,
      "track": 1
    },
    {
      "time": 99.9227,
      "note": 73,
      "noteName": "C#5",
      "velocity": 91,
      "duration": 0.2308,
      "track": 1
    },
    {
      "time": 99.9227,
      "note": 50,
      "noteName": "D3",
      "velocity": 69,
      "duration": 0.4615,
      "track": 1
    },
    {
      "time": 100.1534,
      "note": 74,
      "noteName": "D5",
      "velocity": 81,
      "duration": 0.2308,
      "track": 1
    },
    {
      "time": 100.3842,
      "note": 76,
      "noteName": "E5",
      "velocity": 83,
      "duration": 0.2308,
      "track": 1
    },
    {
      "time": 100.3842,
      "note": 45,
      "noteName": "A2",
      "velocity": 71,
      "duration": 0.4615,
      "track": 1
    },
    {
      "time": 100.615,
      "note": 64,
      "noteName": "E4",
      "velocity": 57,
      "duration": 0.2308,
      "track": 1
    },
    {
      "time": 100.8457,
      "note": 73,
      "noteName": "C#5",
      "velocity": 90,
      "duration": 0.2308,
      "track": 1
    },
    {
      "time": 100.8457,
      "note": 52,
      "noteName": "E3",
      "velocity": 84,
      "duration": 0.4615,
      "track": 1
    },
    {
      "time": 101.0765,
      "note": 74,
      "noteName": "D5",
      "velocity": 82,
      "duration": 0.2308,
      "track": 1
    },
    {
      "time": 101.3073,
      "note": 76,
      "noteName": "E5",
      "velocity": 81,
      "duration": 0.2308,
      "track": 1
    },
    {
      "time": 101.3073,
      "note": 61,
      "noteName": "C#4",
      "velocity": 92,
      "duration": 0.4615,
      "track": 1
    },
    {
      "time": 101.538,
      "note": 64,
      "noteName": "E4",
      "velocity": 54,
      "duration": 0.2308,
      "track": 1
    },
    {
      "time": 101.7688,
      "note": 74,
      "noteName": "D5",
      "velocity": 91,
      "duration": 0.2308,
      "track": 1
    },
    {
      "time": 101.7688,
      "note": 45,
      "noteName": "A2",
      "velocity": 68,
      "duration": 0.4615,
      "track": 1
    },
    {
      "time": 101.9996,
      "note": 73,
      "noteName": "C#5",
      "velocity": 75,
      "duration": 0.2308,
      "track": 1
    },
    {
      "time": 102.2303,
      "note": 71,
      "noteName": "B4",
      "velocity": 68,
      "duration": 0.2308,
      "track": 1
    },
    {
      "time": 102.2303,
      "note": 40,
      "noteName": "E2",
      "velocity": 68,
      "duration": 0.4615,
      "track": 1
    },
    {
      "time": 102.4611,
      "note": 64,
      "noteName": "E4",
      "velocity": 61,
      "duration": 0.2308,
      "track": 1
    },
    {
      "time": 102.6919,
      "note": 68,
      "noteName": "G#4",
      "velocity": 79,
      "duration": 0.2308,
      "track": 1
    },
    {
      "time": 102.6919,
      "note": 47,
      "noteName": "B2",
      "velocity": 83,
      "duration": 0.4615,
      "track": 1
    },
    {
      "time": 102.9226,
      "note": 71,
      "noteName": "B4",
      "velocity": 81,
      "duration": 0.2308,
      "track": 1
    },
    {
      "time": 103.1534,
      "note": 81,
      "noteName": "A5",
      "velocity": 92,
      "duration": 0.2308,
      "track": 1
    },
    {
      "time": 103.1534,
      "note": 56,
      "noteName": "G#3",
      "velocity": 80,
      "duration": 0.4615,
      "track": 1
    },
    {
      "time": 103.3842,
      "note": 83,
      "noteName": "B5",
      "velocity": 81,
      "duration": 0.2308,
      "track": 1
    },
    {
      "time": 103.615,
      "note": 81,
      "noteName": "A5",
      "velocity": 73,
      "duration": 0.2308,
      "track": 1
    },
    {
      "time": 103.615,
      "note": 40,
      "noteName": "E2",
      "velocity": 70,
      "duration": 0.4615,
      "track": 1
    },
    {
      "time": 103.8457,
      "note": 80,
      "noteName": "G#5",
      "velocity": 68,
      "duration": 0.2308,
      "track": 1
    },
    {
      "time": 104.0765,
      "note": 81,
      "noteName": "A5",
      "velocity": 80,
      "duration": 0.2308,
      "track": 1
    },
    {
      "time": 104.0765,
      "note": 42,
      "noteName": "F#2",
      "velocity": 76,
      "duration": 0.4615,
      "track": 1
    },
    {
      "time": 104.3073,
      "note": 69,
      "noteName": "A4",
      "velocity": 53,
      "duration": 0.2308,
      "track": 1
    },
    {
      "time": 104.538,
      "note": 76,
      "noteName": "E5",
      "velocity": 85,
      "duration": 0.2308,
      "track": 1
    },
    {
      "time": 104.538,
      "note": 49,
      "noteName": "C#3",
      "velocity": 84,
      "duration": 0.4615,
      "track": 1
    },
    {
      "time": 104.7688,
      "note": 69,
      "noteName": "A4",
      "velocity": 64,
      "duration": 0.2308,
      "track": 1
    },
    {
      "time": 104.9996,
      "note": 81,
      "noteName": "A5",
      "velocity": 92,
      "duration": 0.2308,
      "track": 1
    },
    {
      "time": 104.9996,
      "note": 54,
      "noteName": "F#3",
      "velocity": 84,
      "duration": 0.4615,
      "track": 1
    },
    {
      "time": 105.2303,
      "note": 81,
      "noteName": "A5",
      "velocity": 82,
      "duration": 0.1154,
      "track": 1
    },
    {
      "time": 105.3457,
      "note": 83,
      "noteName": "B5",
      "velocity": 82,
      "duration": 0.1154,
      "track": 1
    },
    {
      "time": 105.4611,
      "note": 83,
      "noteName": "B5",
      "velocity": 75,
      "duration": 0.2308,
      "track": 1
    },
    {
      "time": 105.4611,
      "note": 42,
      "noteName": "F#2",
      "velocity": 68,
      "duration": 0.4615,
      "track": 1
    },
    {
      "time": 105.6919,
      "note": 80,
      "noteName": "G#5",
      "velocity": 73,
      "duration": 0.2308,
      "track": 1
    },
    {
      "time": 105.9226,
      "note": 81,
      "noteName": "A5",
      "velocity": 78,
      "duration": 0.2308,
      "track": 1
    },
    {
      "time": 105.9226,
      "note": 50,
      "noteName": "D3",
      "velocity": 81,
      "duration": 0.4615,
      "track": 1
    },
    {
      "time": 106.1534,
      "note": 69,
      "noteName": "A4",
      "velocity": 55,
      "duration": 0.2308,
      "track": 1
    },
    {
      "time": 106.3842,
      "note": 76,
      "noteName": "E5",
      "velocity": 85,
      "duration": 0.2308,
      "track": 1
    },
    {
      "time": 106.3842,
      "note": 57,
      "noteName": "A3",
      "velocity": 86,
      "duration": 0.4615,
      "track": 1
    },
    {
      "time": 106.6149,
      "note": 69,
      "noteName": "A4",
      "velocity": 64,
      "duration": 0.2308,
      "track": 1
    },
    {
      "time": 106.8457,
      "note": 81,
      "noteName": "A5",
      "velocity": 93,
      "duration": 0.2308,
      "track": 1
    },
    {
      "time": 106.8457,
      "note": 62,
      "noteName": "D4",
      "velocity": 92,
      "duration": 0.4615,
      "track": 1
    },
    {
      "time": 107.0765,
      "note": 81,
      "noteName": "A5",
      "velocity": 82,
      "duration": 0.1154,
      "track": 1
    },
    {
      "time": 107.1919,
      "note": 83,
      "noteName": "B5",
      "velocity": 82,
      "duration": 0.1154,
      "track": 1
    },
    {
      "time": 107.3072,
      "note": 81,
      "noteName": "A5",
      "velocity": 73,
      "duration": 0.2308,
      "track": 1
    },
    {
      "time": 107.3072,
      "note": 50,
      "noteName": "D3",
      "velocity": 63,
      "duration": 0.4615,
      "track": 1
    },
    {
      "time": 107.538,
      "note": 80,
      "noteName": "G#5",
      "velocity": 74,
      "duration": 0.2308,
      "track": 1
    },
    {
      "time": 107.7688,
      "note": 81,
      "noteName": "A5",
      "velocity": 76,
      "duration": 0.2308,
      "track": 1
    },
    {
      "time": 107.7688,
      "note": 45,
      "noteName": "A2",
      "velocity": 72,
      "duration": 0.4615,
      "track": 1
    },
    {
      "time": 107.9995,
      "note": 83,
      "noteName": "B5",
      "velocity": 86,
      "duration": 0.2308,
      "track": 1
    },
    {
      "time": 108.2303,
      "note": 85,
      "noteName": "C#6",
      "velocity": 81,
      "duration": 0.2308,
      "track": 1
    },
    {
      "time": 108.2303,
      "note": 52,
      "noteName": "E3",
      "velocity": 80,
      "duration": 0.4615,
      "track": 1
    },
    {
      "time": 108.4611,
      "note": 86,
      "noteName": "D6",
      "velocity": 80,
      "duration": 0.2308,
      "track": 1
    },
    {
      "time": 108.6919,
      "note": 88,
      "noteName": "E6",
      "velocity": 83,
      "duration": 0.2308,
      "track": 1
    },
    {
      "time": 108.6919,
      "note": 59,
      "noteName": "B3",
      "velocity": 86,
      "duration": 0.4615,
      "track": 1
    },
    {
      "time": 108.9226,
      "note": 85,
      "noteName": "C#6",
      "velocity": 72,
      "duration": 0.2308,
      "track": 1
    },
    {
      "time": 109.1534,
      "note": 83,
      "noteName": "B5",
      "velocity": 70,
      "duration": 0.2308,
      "track": 1
    },
    {
      "time": 109.1534,
      "note": 45,
      "noteName": "A2",
      "velocity": 71,
      "duration": 0.4615,
      "track": 1
    },
    {
      "time": 109.3842,
      "note": 81,
      "noteName": "A5",
      "velocity": 66,
      "duration": 0.2308,
      "track": 1
    },
    {
      "time": 109.6149,
      "note": 80,
      "noteName": "G#5",
      "velocity": 77,
      "duration": 0.2308,
      "track": 1
    },
    {
      "time": 109.6149,
      "note": 42,
      "noteName": "F#2",
      "velocity": 72,
      "duration": 0.4615,
      "track": 1
    },
    {
      "time": 109.8457,
      "note": 71,
      "noteName": "B4",
      "velocity": 57,
      "duration": 0.2308,
      "track": 1
    },
    {
      "time": 110.0765,
      "note": 76,
      "noteName": "E5",
      "velocity": 81,
      "duration": 0.2308,
      "track": 1
    },
    {
      "time": 110.0765,
      "note": 47,
      "noteName": "B2",
      "velocity": 82,
      "duration": 0.4615,
      "track": 1
    },
    {
      "time": 110.3072,
      "note": 71,
      "noteName": "B4",
      "velocity": 64,
      "duration": 0.2308,
      "track": 1
    },
    {
      "time": 110.538,
      "note": 81,
      "noteName": "A5",
      "velocity": 95,
      "duration": 0.2308,
      "track": 1
    },
    {
      "time": 110.538,
      "note": 56,
      "noteName": "G#3",
      "velocity": 83,
      "duration": 0.4615,
      "track": 1
    },
    {
      "time": 110.7688,
      "note": 81,
      "noteName": "A5",
      "velocity": 80,
      "duration": 0.1154,
      "track": 1
    },
    {
      "time": 110.8842,
      "note": 83,
      "noteName": "B5",
      "velocity": 79,
      "duration": 0.1154,
      "track": 1
    },
    {
      "time": 110.9995,
      "note": 81,
      "noteName": "A5",
      "velocity": 76,
      "duration": 0.2308,
      "track": 1
    },
    {
      "time": 110.9995,
      "note": 42,
      "noteName": "F#2",
      "velocity": 64,
      "duration": 0.4615,
      "track": 1
    },
    {
      "time": 111.2303,
      "note": 80,
      "noteName": "G#5",
      "velocity": 70,
      "duration": 0.2308,
      "track": 1
    },
    {
      "time": 111.4611,
      "note": 81,
      "noteName": "A5",
      "velocity": 79,
      "duration": 0.2308,
      "track": 1
    },
    {
      "time": 111.4611,
      "note": 42,
      "noteName": "F#2",
      "velocity": 76,
      "duration": 0.4615,
      "track": 1
    },
    {
      "time": 111.6918,
      "note": 69,
      "noteName": "A4",
      "velocity": 55,
      "duration": 0.2308,
      "track": 1
    },
    {
      "time": 111.9226,
      "note": 76,
      "noteName": "E5",
      "velocity": 82,
      "duration": 0.2308,
      "track": 1
    },
    {
      "time": 111.9226,
      "note": 49,
      "noteName": "C#3",
      "velocity": 81,
      "duration": 0.4615,
      "track": 1
    },
    {
      "time": 112.1534,
      "note": 69,
      "noteName": "A4",
      "velocity": 65,
      "duration": 0.2308,
      "track": 1
    },
    {
      "time": 112.3841,
      "note": 81,
      "noteName": "A5",
      "velocity": 95,
      "duration": 0.2308,
      "track": 1
    },
    {
      "time": 112.3841,
      "note": 54,
      "noteName": "F#3",
      "velocity": 84,
      "duration": 0.4615,
      "track": 1
    },
    {
      "time": 112.6149,
      "note": 81,
      "noteName": "A5",
      "velocity": 75,
      "duration": 0.1154,
      "track": 1
    },
    {
      "time": 112.7303,
      "note": 83,
      "noteName": "B5",
      "velocity": 83,
      "duration": 0.1154,
      "track": 1
    },
    {
      "time": 112.8457,
      "note": 83,
      "noteName": "B5",
      "velocity": 79,
      "duration": 0.2308,
      "track": 1
    },
    {
      "time": 112.8457,
      "note": 42,
      "noteName": "F#2",
      "velocity": 66,
      "duration": 0.4615,
      "track": 1
    },
    {
      "time": 113.0765,
      "note": 80,
      "noteName": "G#5",
      "velocity": 72,
      "duration": 0.2308,
      "track": 1
    },
    {
      "time": 113.3072,
      "note": 81,
      "noteName": "A5",
      "velocity": 79,
      "duration": 0.2308,
      "track": 1
    },
    {
      "time": 113.3072,
      "note": 50,
      "noteName": "D3",
      "velocity": 81,
      "duration": 0.4615,
      "track": 1
    },
    {
      "time": 113.538,
      "note": 69,
      "noteName": "A4",
      "velocity": 54,
      "duration": 0.2308,
      "track": 1
    },
    {
      "time": 113.7688,
      "note": 76,
      "noteName": "E5",
      "velocity": 87,
      "duration": 0.2308,
      "track": 1
    },
    {
      "time": 113.7688,
      "note": 57,
      "noteName": "A3",
      "velocity": 81,
      "duration": 0.4615,
      "track": 1
    },
    {
      "time": 113.9995,
      "note": 69,
      "noteName": "A4",
      "velocity": 63,
      "duration": 0.2308,
      "track": 1
    },
    {
      "time": 114.2303,
      "note": 81,
      "noteName": "A5",
      "velocity": 96,
      "duration": 0.2308,
      "track": 1
    },
    {
      "time": 114.2303,
      "note": 62,
      "noteName": "D4",
      "velocity": 90,
      "duration": 0.4615,
      "track": 1
    },
    {
      "time": 114.4611,
      "note": 81,
      "noteName": "A5",
      "velocity": 81,
      "duration": 0.1154,
      "track": 1
    },
    {
      "time": 114.5764,
      "note": 83,
      "noteName": "B5",
      "velocity": 79,
      "duration": 0.1154,
      "track": 1
    },
    {
      "time": 114.6918,
      "note": 81,
      "noteName": "A5",
      "velocity": 74,
      "duration": 0.2308,
      "track": 1
    },
    {
      "time": 114.6918,
      "note": 50,
      "noteName": "D3",
      "velocity": 66,
      "duration": 0.4615,
      "track": 1
    },
    {
      "time": 114.9226,
      "note": 80,
      "noteName": "G#5",
      "velocity": 73,
      "duration": 0.2308,
      "track": 1
    },
    {
      "time": 115.1534,
      "note": 81,
      "noteName": "A5",
      "velocity": 77,
      "duration": 0.2308,
      "track": 1
    },
    {
      "time": 115.1534,
      "note": 45,
      "noteName": "A2",
      "velocity": 71,
      "duration": 0.4615,
      "track": 1
    },
    {
      "time": 115.3841,
      "note": 83,
      "noteName": "B5",
      "velocity": 80,
      "duration": 0.2308,
      "track": 1
    },
    {
      "time": 115.6149,
      "note": 85,
      "noteName": "C#6",
      "velocity": 79,
      "duration": 0.2308,
      "track": 1
    },
    {
      "time": 115.6149,
      "note": 52,
      "noteName": "E3",
      "velocity": 79,
      "duration": 0.4615,
      "track": 1
    },
    {
      "time": 115.8457,
      "note": 86,
      "noteName": "D6",
      "velocity": 83,
      "duration": 0.2308,
      "track": 1
    },
    {
      "time": 116.0764,
      "note": 88,
      "noteName": "E6",
      "velocity": 81,
      "duration": 0.2308,
      "track": 1
    },
    {
      "time": 116.0764,
      "note": 59,
      "noteName": "B3",
      "velocity": 87,
      "duration": 0.4615,
      "track": 1
    },
    {
      "time": 116.3072,
      "note": 85,
      "noteName": "C#6",
      "velocity": 67,
      "duration": 0.2308,
      "track": 1
    },
    {
      "time": 116.538,
      "note": 83,
      "noteName": "B5",
      "velocity": 66,
      "duration": 0.2308,
      "track": 1
    },
    {
      "time": 116.538,
      "note": 45,
      "noteName": "A2",
      "velocity": 68,
      "duration": 0.4615,
      "track": 1
    },
    {
      "time": 116.7687,
      "note": 81,
      "noteName": "A5",
      "velocity": 71,
      "duration": 0.2308,
      "track": 1
    },
    {
      "time": 116.9995,
      "note": 80,
      "noteName": "G#5",
      "velocity": 70,
      "duration": 0.2308,
      "track": 1
    },
    {
      "time": 116.9995,
      "note": 42,
      "noteName": "F#2",
      "velocity": 72,
      "duration": 0.4615,
      "track": 1
    },
    {
      "time": 117.2303,
      "note": 71,
      "noteName": "B4",
      "velocity": 61,
      "duration": 0.2308,
      "track": 1
    },
    {
      "time": 117.461,
      "note": 76,
      "noteName": "E5",
      "velocity": 87,
      "duration": 0.2308,
      "track": 1
    },
    {
      "time": 117.461,
      "note": 47,
      "noteName": "B2",
      "velocity": 84,
      "duration": 0.4615,
      "track": 1
    },
    {
      "time": 117.6918,
      "note": 71,
      "noteName": "B4",
      "velocity": 67,
      "duration": 0.2308,
      "track": 1
    },
    {
      "time": 117.9226,
      "note": 81,
      "noteName": "A5",
      "velocity": 91,
      "duration": 0.2308,
      "track": 1
    },
    {
      "time": 117.9226,
      "note": 56,
      "noteName": "G#3",
      "velocity": 87,
      "duration": 0.4615,
      "track": 1
    },
    {
      "time": 118.1534,
      "note": 81,
      "noteName": "A5",
      "velocity": 79,
      "duration": 0.1154,
      "track": 1
    },
    {
      "time": 118.2687,
      "note": 83,
      "noteName": "B5",
      "velocity": 80,
      "duration": 0.1154,
      "track": 1
    },
    {
      "time": 118.3841,
      "note": 81,
      "noteName": "A5",
      "velocity": 72,
      "duration": 0.2308,
      "track": 1
    },
    {
      "time": 118.3841,
      "note": 42,
      "noteName": "F#2",
      "velocity": 67,
      "duration": 0.4615,
      "track": 1
    },
    {
      "time": 118.6149,
      "note": 80,
      "noteName": "G#5",
      "velocity": 70,
      "duration": 0.2308,
      "track": 1
    },
    {
      "time": 118.8457,
      "note": 81,
      "noteName": "A5",
      "velocity": 79,
      "duration": 0.2308,
      "track": 1
    },
    {
      "time": 118.8457,
      "note": 42,
      "noteName": "F#2",
      "velocity": 77,
      "duration": 0.4615,
      "track": 1
    },
    {
      "time": 119.0764,
      "note": 69,
      "noteName": "A4",
      "velocity": 54,
      "duration": 0.2308,
      "track": 1
    },
    {
      "time": 119.3072,
      "note": 76,
      "noteName": "E5",
      "velocity": 83,
      "duration": 0.2308,
      "track": 1
    },
    {
      "time": 119.3072,
      "note": 49,
      "noteName": "C#3",
      "velocity": 81,
      "duration": 0.4615,
      "track": 1
    },
    {
      "time": 119.538,
      "note": 69,
      "noteName": "A4",
      "velocity": 69,
      "duration": 0.2308,
      "track": 1
    },
    {
      "time": 119.7687,
      "note": 81,
      "noteName": "A5",
      "velocity": 92,
      "duration": 0.2308,
      "track": 1
    },
    {
      "time": 119.7687,
      "note": 54,
      "noteName": "F#3",
      "velocity": 83,
      "duration": 0.4615,
      "track": 1
    },
    {
      "time": 119.9995,
      "note": 83,
      "noteName": "B5",
      "velocity": 83,
      "duration": 0.2308,
      "track": 1
    },
    {
      "time": 120.2303,
      "note": 81,
      "noteName": "A5",
      "velocity": 72,
      "duration": 0.2308,
      "track": 1
    },
    {
      "time": 120.2303,
      "note": 42,
      "noteName": "F#2",
      "velocity": 69,
      "duration": 0.4615,
      "track": 1
    },
    {
      "time": 120.461,
      "note": 80,
      "noteName": "G#5",
      "velocity": 74,
      "duration": 0.2308,
      "track": 1
    },
    {
      "time": 120.6918,
      "note": 81,
      "noteName": "A5",
      "velocity": 79,
      "duration": 0.2308,
      "track": 1
    },
    {
      "time": 120.6918,
      "note": 50,
      "noteName": "D3",
      "velocity": 81,
      "duration": 0.4615,
      "track": 1
    },
    {
      "time": 120.9226,
      "note": 69,
      "noteName": "A4",
      "velocity": 57,
      "duration": 0.2308,
      "track": 1
    },
    {
      "time": 121.1533,
      "note": 76,
      "noteName": "E5",
      "velocity": 86,
      "duration": 0.2308,
      "track": 1
    },
    {
      "time": 121.1533,
      "note": 57,
      "noteName": "A3",
      "velocity": 79,
      "duration": 0.4615,
      "track": 1
    },
    {
      "time": 121.3841,
      "note": 69,
      "noteName": "A4",
      "velocity": 61,
      "duration": 0.2308,
      "track": 1
    },
    {
      "time": 121.6149,
      "note": 81,
      "noteName": "A5",
      "velocity": 94,
      "duration": 0.2308,
      "track": 1
    },
    {
      "time": 121.6149,
      "note": 62,
      "noteName": "D4",
      "velocity": 92,
      "duration": 0.4615,
      "track": 1
    },
    {
      "time": 121.8456,
      "note": 83,
      "noteName": "B5",
      "velocity": 84,
      "duration": 0.2308,
      "track": 1
    },
    {
      "time": 122.0764,
      "note": 81,
      "noteName": "A5",
      "velocity": 71,
      "duration": 0.2308,
      "track": 1
    },
    {
      "time": 122.0764,
      "note": 50,
      "noteName": "D3",
      "velocity": 69,
      "duration": 0.4615,
      "track": 1
    },
    {
      "time": 122.3072,
      "note": 80,
      "noteName": "G#5",
      "velocity": 71,
      "duration": 0.2308,
      "track": 1
    },
    {
      "time": 122.5379,
      "note": 81,
      "noteName": "A5",
      "velocity": 78,
      "duration": 0.2308,
      "track": 1
    },
    {
      "time": 122.5379,
      "note": 45,
      "noteName": "A2",
      "velocity": 67,
      "duration": 0.4615,
      "track": 1
    },
    {
      "time": 122.7687,
      "note": 83,
      "noteName": "B5",
      "velocity": 80,
      "duration": 0.2308,
      "track": 1
    },
    {
      "time": 122.9995,
      "note": 85,
      "noteName": "C#6",
      "velocity": 77,
      "duration": 0.2308,
      "track": 1
    },
    {
      "time": 122.9995,
      "note": 52,
      "noteName": "E3",
      "velocity": 85,
      "duration": 0.4615,
      "track": 1
    },
    {
      "time": 123.2303,
      "note": 86,
      "noteName": "D6",
      "velocity": 79,
      "duration": 0.2308,
      "track": 1
    },
    {
      "time": 123.461,
      "note": 88,
      "noteName": "E6",
      "velocity": 80,
      "duration": 0.2308,
      "track": 1
    },
    {
      "time": 123.461,
      "note": 59,
      "noteName": "B3",
      "velocity": 85,
      "duration": 0.4615,
      "track": 1
    },
    {
      "time": 123.6918,
      "note": 85,
      "noteName": "C#6",
      "velocity": 65,
      "duration": 0.2308,
      "track": 1
    },
    {
      "time": 123.9226,
      "note": 83,
      "noteName": "B5",
      "velocity": 69,
      "duration": 0.2308,
      "track": 1
    },
    {
      "time": 123.9226,
      "note": 45,
      "noteName": "A2",
      "velocity": 71,
      "duration": 0.4615,
      "track": 1
    },
    {
      "time": 124.1533,
      "note": 81,
      "noteName": "A5",
      "velocity": 71,
      "duration": 0.2308,
      "track": 1
    },
    {
      "time": 124.3841,
      "note": 80,
      "noteName": "G#5",
      "velocity": 73,
      "duration": 0.4615,
      "track": 1
    },
    {
      "time": 124.3841,
      "note": 42,
      "noteName": "F#2",
      "velocity": 71,
      "duration": 0.4615,
      "track": 1
    },
    {
      "time": 124.8456,
      "note": 71,
      "noteName": "B4",
      "velocity": 56,
      "duration": 0.4615,
      "track": 1
    },
    {
      "time": 124.8456,
      "note": 47,
      "noteName": "B2",
      "velocity": 85,
      "duration": 0.4615,
      "track": 1
    },
    {
      "time": 125.3072,
      "note": 81,
      "noteName": "A5",
      "velocity": 93,
      "duration": 0.2308,
      "track": 1
    },
    {
      "time": 125.3072,
      "note": 56,
      "noteName": "G#3",
      "velocity": 87,
      "duration": 0.4615,
      "track": 1
    },
    {
      "time": 125.5379,
      "note": 81,
      "noteName": "A5",
      "velocity": 78,
      "duration": 0.1154,
      "track": 1
    },
    {
      "time": 125.6533,
      "note": 83,
      "noteName": "B5",
      "velocity": 80,
      "duration": 0.1154,
      "track": 1
    },
    {
      "time": 125.7687,
      "note": 83,
      "noteName": "B5",
      "velocity": 75,
      "duration": 0.2308,
      "track": 1
    },
    {
      "time": 125.7687,
      "note": 42,
      "noteName": "F#2",
      "velocity": 67,
      "duration": 0.4615,
      "track": 1
    },
    {
      "time": 125.9995,
      "note": 80,
      "noteName": "G#5",
      "velocity": 68,
      "duration": 0.2308,
      "track": 1
    },
    {
      "time": 126.2302,
      "note": 81,
      "noteName": "A5",
      "velocity": 81,
      "duration": 0.2308,
      "track": 1
    },
    {
      "time": 126.2302,
      "note": 42,
      "noteName": "F#2",
      "velocity": 75,
      "duration": 0.4615,
      "track": 1
    },
    {
      "time": 126.461,
      "note": 69,
      "noteName": "A4",
      "velocity": 57,
      "duration": 0.2308,
      "track": 1
    },
    {
      "time": 126.6918,
      "note": 76,
      "noteName": "E5",
      "velocity": 84,
      "duration": 0.2308,
      "track": 1
    },
    {
      "time": 126.6918,
      "note": 49,
      "noteName": "C#3",
      "velocity": 80,
      "duration": 0.4615,
      "track": 1
    },
    {
      "time": 126.9225,
      "note": 69,
      "noteName": "A4",
      "velocity": 64,
      "duration": 0.2308,
      "track": 1
    },
    {
      "time": 127.1533,
      "note": 81,
      "noteName": "A5",
      "velocity": 94,
      "duration": 0.2308,
      "track": 1
    },
    {
      "time": 127.1533,
      "note": 54,
      "noteName": "F#3",
      "velocity": 83,
      "duration": 0.4615,
      "track": 1
    },
    {
      "time": 127.3841,
      "note": 81,
      "noteName": "A5",
      "velocity": 77,
      "duration": 0.1154,
      "track": 1
    },
    {
      "time": 127.4995,
      "note": 83,
      "noteName": "B5",
      "velocity": 83,
      "duration": 0.1154,
      "track": 1
    },
    {
      "time": 127.6149,
      "note": 81,
      "noteName": "A5",
      "velocity": 69,
      "duration": 0.2308,
      "track": 1
    },
    {
      "time": 127.6149,
      "note": 42,
      "noteName": "F#2",
      "velocity": 65,
      "duration": 0.4615,
      "track": 1
    },
    {
      "time": 127.8456,
      "note": 80,
      "noteName": "G#5",
      "velocity": 72,
      "duration": 0.2308,
      "track": 1
    },
    {
      "time": 128.0764,
      "note": 81,
      "noteName": "A5",
      "velocity": 79,
      "duration": 0.2308,
      "track": 1
    },
    {
      "time": 128.0764,
      "note": 50,
      "noteName": "D3",
      "velocity": 82,
      "duration": 0.4615,
      "track": 1
    },
    {
      "time": 128.3072,
      "note": 69,
      "noteName": "A4",
      "velocity": 57,
      "duration": 0.2308,
      "track": 1
    },
    {
      "time": 128.5379,
      "note": 76,
      "noteName": "E5",
      "velocity": 90,
      "duration": 0.2308,
      "track": 1
    },
    {
      "time": 128.5379,
      "note": 57,
      "noteName": "A3",
      "velocity": 84,
      "duration": 0.4615,
      "track": 1
    },
    {
      "time": 128.7687,
      "note": 69,
      "noteName": "A4",
      "velocity": 60,
      "duration": 0.2308,
      "track": 1
    },
    {
      "time": 128.9995,
      "note": 81,
      "noteName": "A5",
      "velocity": 95,
      "duration": 0.2308,
      "track": 1
    },
    {
      "time": 128.9995,
      "note": 64,
      "noteName": "E4",
      "velocity": 91,
      "duration": 0.4615,
      "track": 1
    },
    {
      "time": 129.2302,
      "note": 81,
      "noteName": "A5",
      "velocity": 80,
      "duration": 0.1154,
      "track": 1
    },
    {
      "time": 129.3456,
      "note": 83,
      "noteName": "B5",
      "velocity": 83,
      "duration": 0.1154,
      "track": 1
    },
    {
      "time": 129.461,
      "note": 81,
      "noteName": "A5",
      "velocity": 72,
      "duration": 0.2308,
      "track": 1
    },
    {
      "time": 129.461,
      "note": 50,
      "noteName": "D3",
      "velocity": 67,
      "duration": 0.4615,
      "track": 1
    },
    {
      "time": 129.6918,
      "note": 80,
      "noteName": "G#5",
      "velocity": 78,
      "duration": 0.2308,
      "track": 1
    },
    {
      "time": 129.9225,
      "note": 81,
      "noteName": "A5",
      "velocity": 80,
      "duration": 0.2308,
      "track": 1
    },
    {
      "time": 129.9225,
      "note": 45,
      "noteName": "A2",
      "velocity": 69,
      "duration": 0.4615,
      "track": 1
    },
    {
      "time": 130.1533,
      "note": 83,
      "noteName": "B5",
      "velocity": 79,
      "duration": 0.2308,
      "track": 1
    },
    {
      "time": 130.3841,
      "note": 85,
      "noteName": "C#6",
      "velocity": 83,
      "duration": 0.2308,
      "track": 1
    },
    {
      "time": 130.3841,
      "note": 52,
      "noteName": "E3",
      "velocity": 81,
      "duration": 0.4615,
      "track": 1
    },
    {
      "time": 130.6148,
      "note": 86,
      "noteName": "D6",
      "velocity": 81,
      "duration": 0.2308,
      "track": 1
    },
    {
      "time": 130.8456,
      "note": 88,
      "noteName": "E6",
      "velocity": 84,
      "duration": 0.2308,
      "track": 1
    },
    {
      "time": 130.8456,
      "note": 61,
      "noteName": "C#4",
      "velocity": 92,
      "duration": 0.4615,
      "track": 1
    },
    {
      "time": 131.0764,
      "note": 85,
      "noteName": "C#6",
      "velocity": 68,
      "duration": 0.2308,
      "track": 1
    },
    {
      "time": 131.3071,
      "note": 83,
      "noteName": "B5",
      "velocity": 76,
      "duration": 0.2308,
      "track": 1
    },
    {
      "time": 131.3071,
      "note": 45,
      "noteName": "A2",
      "velocity": 65,
      "duration": 0.4615,
      "track": 1
    },
    {
      "time": 131.5379,
      "note": 81,
      "noteName": "A5",
      "velocity": 71,
      "duration": 0.2308,
      "track": 1
    },
    {
      "time": 131.7687,
      "note": 80,
      "noteName": "G#5",
      "velocity": 70,
      "duration": 0.4615,
      "track": 1
    },
    {
      "time": 131.7687,
      "note": 40,
      "noteName": "E2",
      "velocity": 70,
      "duration": 0.4615,
      "track": 1
    },
    {
      "time": 132.2302,
      "note": 74,
      "noteName": "D5",
      "velocity": 69,
      "duration": 0.4615,
      "track": 1
    },
    {
      "time": 132.2302,
      "note": 47,
      "noteName": "B2",
      "velocity": 82,
      "duration": 0.4615,
      "track": 1
    },
    {
      "time": 132.6918,
      "note": 68,
      "noteName": "G#4",
      "velocity": 61,
      "duration": 0.4615,
      "track": 1
    },
    {
      "time": 132.6918,
      "note": 56,
      "noteName": "G#3",
      "velocity": 88,
      "duration": 0.9231,
      "track": 1
    },
    {
      "time": 133.1533,
      "note": 64,
      "noteName": "E4",
      "velocity": 66,
      "duration": 0.4615,
      "track": 1
    },
    {
      "time": 133.6148,
      "note": 81,
      "noteName": "A5",
      "velocity": 98,
      "duration": 0.4615,
      "track": 1
    },
    {
      "time": 133.6148,
      "note": 54,
      "noteName": "F#3",
      "velocity": 87,
      "duration": 1.8461,
      "track": 1
    },
    {
      "time": 133.6148,
      "note": 61,
      "noteName": "C#4",
      "velocity": 87,
      "duration": 1.8461,
      "track": 1
    },
    {
      "time": 134.0764,
      "note": 80,
      "noteName": "G#5",
      "velocity": 79,
      "duration": 0.4615,
      "track": 1
    },
    {
      "time": 134.5379,
      "note": 81,
      "noteName": "A5",
      "velocity": 77,
      "duration": 0.4615,
      "track": 1
    },
    {
      "time": 134.9994,
      "note": 80,
      "noteName": "G#5",
      "velocity": 71,
      "duration": 0.4615,
      "track": 1
    },
    {
      "time": 135.461,
      "note": 73,
      "noteName": "C#5",
      "velocity": 77,
      "duration": 0.4615,
      "track": 1
    },
    {
      "time": 135.461,
      "note": 80,
      "noteName": "G#5",
      "velocity": 77,
      "duration": 0.4615,
      "track": 1
    },
    {
      "time": 135.461,
      "note": 54,
      "noteName": "F#3",
      "velocity": 71,
      "duration": 0.4615,
      "track": 1
    },
    {
      "time": 135.9225,
      "note": 76,
      "noteName": "E5",
      "velocity": 66,
      "duration": 0.4615,
      "track": 1
    },
    {
      "time": 135.9225,
      "note": 62,
      "noteName": "D4",
      "velocity": 93,
      "duration": 0.4615,
      "track": 1
    },
    {
      "time": 136.384,
      "note": 81,
      "noteName": "A5",
      "velocity": 88,
      "duration": 0.4615,
      "track": 1
    },
    {
      "time": 136.384,
      "note": 66,
      "noteName": "F#4",
      "velocity": 89,
      "duration": 0.4615,
      "track": 1
    },
    {
      "time": 136.8456,
      "note": 74,
      "noteName": "D5",
      "velocity": 64,
      "duration": 0.4615,
      "track": 1
    },
    {
      "time": 136.8456,
      "note": 54,
      "noteName": "F#3",
      "velocity": 69,
      "duration": 0.4615,
      "track": 1
    },
    {
      "time": 137.3071,
      "note": 73,
      "noteName": "C#5",
      "velocity": 72,
      "duration": 0.4615,
      "track": 1
    },
    {
      "time": 137.3071,
      "note": 52,
      "noteName": "E3",
      "velocity": 74,
      "duration": 0.4615,
      "track": 1
    },
    {
      "time": 137.7687,
      "note": 74,
      "noteName": "D5",
      "velocity": 80,
      "duration": 0.4615,
      "track": 1
    },
    {
      "time": 137.7687,
      "note": 61,
      "noteName": "C#4",
      "velocity": 98,
      "duration": 0.4615,
      "track": 1
    },
    {
      "time": 138.2302,
      "note": 76,
      "noteName": "E5",
      "velocity": 85,
      "duration": 0.4615,
      "track": 1
    },
    {
      "time": 138.2302,
      "note": 69,
      "noteName": "A4",
      "velocity": 96,
      "duration": 0.4615,
      "track": 1
    },
    {
      "time": 138.6917,
      "note": 73,
      "noteName": "C#5",
      "velocity": 75,
      "duration": 0.4615,
      "track": 1
    },
    {
      "time": 139.1533,
      "note": 71,
      "noteName": "B4",
      "velocity": 71,
      "duration": 0.9231,
      "track": 1
    },
    {
      "time": 139.1533,
      "note": 68,
      "noteName": "G#4",
      "velocity": 70,
      "duration": 1.8461,
      "track": 1
    },
    {
      "time": 139.1533,
      "note": 64,
      "noteName": "E4",
      "velocity": 70,
      "duration": 1.8461,
      "track": 1
    },
    {
      "time": 140.0763,
      "note": 69,
      "noteName": "A4",
      "velocity": 71,
      "duration": 0.4615,
      "track": 1
    },
    {
      "time": 140.5379,
      "note": 68,
      "noteName": "G#4",
      "velocity": 71,
      "duration": 0.4615,
      "track": 1
    },
    {
      "time": 140.9994,
      "note": 42,
      "noteName": "F#2",
      "velocity": 63,
      "duration": 0.4615,
      "track": 1
    },
    {
      "time": 140.9994,
      "note": 61,
      "noteName": "C#4",
      "velocity": 82,
      "duration": 0.9231,
      "track": 1
    },
    {
      "time": 140.9994,
      "note": 64,
      "noteName": "E4",
      "velocity": 82,
      "duration": 0.9231,
      "track": 1
    },
    {
      "time": 140.9994,
      "note": 69,
      "noteName": "A4",
      "velocity": 82,
      "duration": 0.9231,
      "track": 1
    },
    {
      "time": 141.4609,
      "note": 49,
      "noteName": "C#3",
      "velocity": 80,
      "duration": 1.3846,
      "track": 1
    },
    {
      "time": 141.9225,
      "note": 64,
      "noteName": "E4",
      "velocity": 70,
      "duration": 0.4615,
      "track": 1
    },
    {
      "time": 142.384,
      "note": 69,
      "noteName": "A4",
      "velocity": 88,
      "duration": 0.2308,
      "track": 1
    },
    {
      "time": 142.6148,
      "note": 71,
      "noteName": "B4",
      "velocity": 82,
      "duration": 0.2308,
      "track": 1
    },
    {
      "time": 142.8456,
      "note": 73,
      "noteName": "C#5",
      "velocity": 80,
      "duration": 0.4615,
      "track": 1
    },
    {
      "time": 142.8456,
      "note": 50,
      "noteName": "D3",
      "velocity": 78,
      "duration": 0.4615,
      "track": 1
    },
    {
      "time": 143.3071,
      "note": 64,
      "noteName": "E4",
      "velocity": 61,
      "duration": 0.4615,
      "track": 1
    },
    {
      "time": 143.3071,
      "note": 57,
      "noteName": "A3",
      "velocity": 85,
      "duration": 0.4615,
      "track": 1
    },
    {
      "time": 143.7686,
      "note": 69,
      "noteName": "A4",
      "velocity": 86,
      "duration": 0.4615,
      "track": 1
    },
    {
      "time": 143.7686,
      "note": 66,
      "noteName": "F#4",
      "velocity": 93,
      "duration": 0.9231,
      "track": 1
    },
    {
      "time": 144.2302,
      "note": 73,
      "noteName": "C#5",
      "velocity": 87,
      "duration": 0.2308,
      "track": 1
    },
    {
      "time": 144.4609,
      "note": 74,
      "noteName": "D5",
      "velocity": 77,
      "duration": 0.2308,
      "track": 1
    },
    {
      "time": 144.6917,
      "note": 81,
      "noteName": "A5",
      "velocity": 91,
      "duration": 0.4615,
      "track": 1
    },
    {
      "time": 144.6917,
      "note": 54,
      "noteName": "F#3",
      "velocity": 70,
      "duration": 0.4615,
      "track": 1
    },
    {
      "time": 145.1532,
      "note": 80,
      "noteName": "G#5",
      "velocity": 73,
      "duration": 0.4615,
      "track": 1
    },
    {
      "time": 145.1532,
      "note": 61,
      "noteName": "C#4",
      "velocity": 89,
      "duration": 0.4615,
      "track": 1
    },
    {
      "time": 145.6148,
      "note": 81,
      "noteName": "A5",
      "velocity": 81,
      "duration": 0.4615,
      "track": 1
    },
    {
      "time": 145.6148,
      "note": 66,
      "noteName": "F#4",
      "velocity": 91,
      "duration": 0.9231,
      "track": 1
    },
    {
      "time": 146.0763,
      "note": 80,
      "noteName": "G#5",
      "velocity": 69,
      "duration": 0.4615,
      "track": 1
    },
    {
      "time": 146.5378,
      "note": 73,
      "noteName": "C#5",
      "velocity": 81,
      "duration": 0.4615,
      "track": 1
    },
    {
      "time": 146.5378,
      "note": 76,
      "noteName": "E5",
      "velocity": 81,
      "duration": 0.4615,
      "track": 1
    },
    {
      "time": 146.5378,
      "note": 81,
      "noteName": "A5",
      "velocity": 81,
      "duration": 0.4615,
      "track": 1
    },
    {
      "time": 146.5378,
      "note": 50,
      "noteName": "D3",
      "velocity": 71,
      "duration": 0.4615,
      "track": 1
    },
    {
      "time": 146.9994,
      "note": 76,
      "noteName": "E5",
      "velocity": 64,
      "duration": 0.4615,
      "track": 1
    },
    {
      "time": 146.9994,
      "note": 57,
      "noteName": "A3",
      "velocity": 77,
      "duration": 0.4615,
      "track": 1
    },
    {
      "time": 147.4609,
      "note": 81,
      "noteName": "A5",
      "velocity": 86,
      "duration": 0.4615,
      "track": 1
    },
    {
      "time": 147.4609,
      "note": 66,
      "noteName": "F#4",
      "velocity": 86,
      "duration": 0.4615,
      "track": 1
    },
    {
      "time": 147.9225,
      "note": 74,
      "noteName": "D5",
      "velocity": 65,
      "duration": 0.4615,
      "track": 1
    },
    {
      "time": 147.9225,
      "note": 50,
      "noteName": "D3",
      "velocity": 68,
      "duration": 0.4615,
      "track": 1
    },
    {
      "time": 148.384,
      "note": 73,
      "noteName": "C#5",
      "velocity": 70,
      "duration": 0.4615,
      "track": 1
    },
    {
      "time": 148.384,
      "note": 45,
      "noteName": "A2",
      "velocity": 69,
      "duration": 0.4615,
      "track": 1
    },
    {
      "time": 148.8455,
      "note": 74,
      "noteName": "D5",
      "velocity": 76,
      "duration": 0.4615,
      "track": 1
    },
    {
      "time": 148.8455,
      "note": 52,
      "noteName": "E3",
      "velocity": 80,
      "duration": 0.4615,
      "track": 1
    },
    {
      "time": 149.3071,
      "note": 76,
      "noteName": "E5",
      "velocity": 80,
      "duration": 0.4615,
      "track": 1
    },
    {
      "time": 149.3071,
      "note": 61,
      "noteName": "C#4",
      "velocity": 90,
      "duration": 0.4615,
      "track": 1
    },
    {
      "time": 149.7686,
      "note": 85,
      "noteName": "C#6",
      "velocity": 89,
      "duration": 0.4615,
      "track": 1
    },
    {
      "time": 150.2301,
      "note": 52,
      "noteName": "E3",
      "velocity": 67,
      "duration": 0.4615,
      "track": 1
    },
    {
      "time": 150.2301,
      "note": 76,
      "noteName": "E5",
      "velocity": 75,
      "duration": 1.3846,
      "track": 1
    },
    {
      "time": 150.2301,
      "note": 81,
      "noteName": "A5",
      "velocity": 75,
      "duration": 1.3846,
      "track": 1
    },
    {
      "time": 150.6917,
      "note": 59,
      "noteName": "B3",
      "velocity": 85,
      "duration": 0.4615,
      "track": 1
    },
    {
      "time": 151.1532,
      "note": 69,
      "noteName": "A4",
      "velocity": 89,
      "duration": 0.4615,
      "track": 1
    },
    {
      "time": 151.6147,
      "note": 69,
      "noteName": "A4",
      "velocity": 53,
      "duration": 0.2308,
      "track": 1
    },
    {
      "time": 151.8455,
      "note": 68,
      "noteName": "G#4",
      "velocity": 68,
      "duration": 0.2308,
      "track": 1
    },
    {
      "time": 152.0763,
      "note": 42,
      "noteName": "F#2",
      "velocity": 69,
      "duration": 0.4615,
      "track": 1
    },
    {
      "time": 152.0763,
      "note": 64,
      "noteName": "E4",
      "velocity": 81,
      "duration": 1.3846,
      "track": 1
    },
    {
      "time": 152.0763,
      "note": 69,
      "noteName": "A4",
      "velocity": 81,
      "duration": 1.3846,
      "track": 1
    },
    {
      "time": 152.5378,
      "note": 49,
      "noteName": "C#3",
      "velocity": 86,
      "duration": 0.4615,
      "track": 1
    },
    {
      "time": 152.9994,
      "note": 54,
      "noteName": "F#3",
      "velocity": 81,
      "duration": 0.9231,
      "track": 1
    },
    {
      "time": 153.4609,
      "note": 69,
      "noteName": "A4",
      "velocity": 78,
      "duration": 0.2308,
      "track": 1
    },
    {
      "time": 153.6917,
      "note": 71,
      "noteName": "B4",
      "velocity": 81,
      "duration": 0.2308,
      "track": 1
    },
    {
      "time": 153.9224,
      "note": 73,
      "noteName": "C#5",
      "velocity": 83,
      "duration": 0.4615,
      "track": 1
    },
    {
      "time": 153.9224,
      "note": 50,
      "noteName": "D3",
      "velocity": 71,
      "duration": 0.4615,
      "track": 1
    },
    {
      "time": 154.384,
      "note": 64,
      "noteName": "E4",
      "velocity": 59,
      "duration": 0.4615,
      "track": 1
    },
    {
      "time": 154.384,
      "note": 57,
      "noteName": "A3",
      "velocity": 86,
      "duration": 0.4615,
      "track": 1
    },
    {
      "time": 154.8455,
      "note": 69,
      "noteName": "A4",
      "velocity": 87,
      "duration": 0.4615,
      "track": 1
    },
    {
      "time": 154.8455,
      "note": 62,
      "noteName": "D4",
      "velocity": 86,
      "duration": 0.9231,
      "track": 1
    },
    {
      "time": 155.307,
      "note": 73,
      "noteName": "C#5",
      "velocity": 88,
      "duration": 0.2308,
      "track": 1
    },
    {
      "time": 155.5378,
      "note": 74,
      "noteName": "D5",
      "velocity": 82,
      "duration": 0.2308,
      "track": 1
    },
    {
      "time": 155.7686,
      "note": 76,
      "noteName": "E5",
      "velocity": 80,
      "duration": 0.4615,
      "track": 1
    },
    {
      "time": 155.7686,
      "note": 45,
      "noteName": "A2",
      "velocity": 71,
      "duration": 0.4615,
      "track": 1
    },
    {
      "time": 156.2301,
      "note": 64,
      "noteName": "E4",
      "velocity": 57,
      "duration": 0.4615,
      "track": 1
    },
    {
      "time": 156.2301,
      "note": 52,
      "noteName": "E3",
      "velocity": 85,
      "duration": 0.4615,
      "track": 1
    },
    {
      "time": 156.6916,
      "note": 69,
      "noteName": "A4",
      "velocity": 87,
      "duration": 0.4615,
      "track": 1
    },
    {
      "time": 156.6916,
      "note": 54,
      "noteName": "F#3",
      "velocity": 82,
      "duration": 0.9231,
      "track": 1
    },
    {
      "time": 157.1532,
      "note": 74,
      "noteName": "D5",
      "velocity": 89,
      "duration": 0.2308,
      "track": 1
    },
    {
      "time": 157.384,
      "note": 73,
      "noteName": "C#5",
      "velocity": 77,
      "duration": 0.2308,
      "track": 1
    },
    {
      "time": 157.6147,
      "note": 40,
      "noteName": "E2",
      "velocity": 68,
      "duration": 0.4615,
      "track": 1
    },
    {
      "time": 157.6147,
      "note": 71,
      "noteName": "B4",
      "velocity": 73,
      "duration": 0.9231,
      "track": 1
    },
    {
      "time": 158.0763,
      "note": 49,
      "noteName": "C#3",
      "velocity": 80,
      "duration": 0.4615,
      "track": 1
    },
    {
      "time": 158.5378,
      "note": 64,
      "noteName": "E4",
      "velocity": 60,
      "duration": 0.9231,
      "track": 1
    },
    {
      "time": 158.5378,
      "note": 56,
      "noteName": "G#3",
      "velocity": 85,
      "duration": 0.9231,
      "track": 1
    },
    {
      "time": 159.4609,
      "note": 69,
      "noteName": "A4",
      "velocity": 81,
      "duration": 0.4615,
      "track": 1
    },
    {
      "time": 159.4609,
      "note": 42,
      "noteName": "F#2",
      "velocity": 65,
      "duration": 0.4615,
      "track": 1
    },
    {
      "time": 159.9224,
      "note": 57,
      "noteName": "A3",
      "velocity": 70,
      "duration": 0.4615,
      "track": 1
    },
    {
      "time": 159.9224,
      "note": 49,
      "noteName": "C#3",
      "velocity": 79,
      "duration": 0.4615,
      "track": 1
    },
    {
      "time": 160.3839,
      "note": 61,
      "noteName": "C#4",
      "velocity": 87,
      "duration": 0.6923,
      "track": 1
    },
    {
      "time": 160.3839,
      "note": 54,
      "noteName": "F#3",
      "velocity": 81,
      "duration": 3.4615,
      "track": 1
    },
    {
      "time": 161.0762,
      "note": 66,
      "noteName": "F#4",
      "velocity": 91,
      "duration": 0.6923,
      "track": 1
    },
    {
      "time": 161.7686,
      "note": 69,
      "noteName": "A4",
      "velocity": 81,
      "duration": 3,
      "track": 1
    }
  ]
}